<svg xmlns="http://www.w3.org/2000/svg" fill="none" viewBox="0 0 32 32"><rect width="32" height="32" fill="#63BC40" rx="16"/><path fill="#fff" d="M22.784 11.563s0-.067-.032-.094a2.292 2.292 0 0 0-1.082-1.135C21.097 10 20.46 10 19.315 10h-6.618c-1.145 0-1.781 0-2.29.267-.477.233-.86.635-1.082 1.135l-.121.247L16 16.284l6.784-4.721Z"/><path fill="#fff" d="M16.636 17.46a1.114 1.114 0 0 1-1.272 0L9 13.111v5.015c0 1.202 0 1.87.255 2.404.222.5.605.902 1.081 1.135.573.334 1.21.334 2.355.334h6.618c1.146 0 1.782 0 2.291-.267.477-.233.86-.635 1.082-1.135.318-.601.318-1.27.318-2.471v-5.135l-6.364 4.467Z"/></svg>