<svg xmlns="http://www.w3.org/2000/svg" fill="none" viewBox="0 0 32 32"><rect width="32" height="32" fill="url(#a)" rx="16"/><path fill="#fff" d="M19.21 9h-6.42C10.7 9 9 10.7 9 12.79v6.42C9 21.3 10.7 23 12.79 23h6.42C21.3 23 23 21.3 23 19.21v-6.42C23 10.7 21.3 9 19.21 9ZM16 19.828A3.832 3.832 0 0 1 12.172 16 3.832 3.832 0 0 1 16 12.172 3.832 3.832 0 0 1 19.828 16 3.832 3.832 0 0 1 16 19.828Zm3.92-6.753a1.132 1.132 0 0 1 0-2.263 1.132 1.132 0 0 1 0 2.262Z"/><path fill="#fff" d="M16 12.993A3.01 3.01 0 0 0 12.991 16 3.01 3.01 0 0 0 16 19.007 3.01 3.01 0 0 0 19.008 16a3.01 3.01 0 0 0-3.008-3.007Z"/><defs><linearGradient id="a" x1="6.8" x2="28" y1="28.4" y2="6.4" gradientUnits="userSpaceOnUse"><stop stop-color="#EEA054"/><stop offset=".503" stop-color="#D64763"/><stop offset="1" stop-color="#B62A99"/></linearGradient></defs></svg>