<svg xmlns="http://www.w3.org/2000/svg" fill="none" viewBox="0 0 32 32"><rect width="32" height="32" fill="#F79A38" rx="16"/><path fill="#fff" d="M20.675 17.846c.383-.374.438-.91.11-1.445-.275-.428-.768-.642-1.316-.535a1.87 1.87 0 0 0-.657.321c-1.698 1.124-4 1.07-5.698-.053l-.328-.16c-.603-.268-1.206-.161-1.534.374-.384.535-.329 1.124.164 1.605.11.107.22.16.274.268l.055.053c.767.589 1.698.963 2.903 1.124l-.712.696-1.863 1.819c-.164.16-.383.428-.383.803 0 .481.274.963.767 1.177.164.107.329.107.493.107.274 0 .603-.107.822-.375l2.136-2.087.055-.053s.055 0 .055.053c.438.482.931.91 1.37 1.392l.657.642c.274.268.493.375.822.375.493.053 1.04-.268 1.26-.75.219-.428.11-.963-.274-1.284-.548-.535-1.096-1.124-1.699-1.659l-.93-.91c.492-.053 1.04-.16 1.533-.374.822-.268 1.424-.642 1.918-1.124Z"/><path fill="#fff" d="M15.963 16.348c2.356 0 4.273-1.82 4.273-4.12a4.16 4.16 0 0 0-1.26-2.997C18.154 8.428 17.114 8 16.018 8c-2.356 0-4.219 1.873-4.273 4.12 0 1.124.438 2.14 1.26 2.944.767.856 1.808 1.284 2.958 1.284Zm-1.205-5.351a1.72 1.72 0 0 1 1.205-.482c.986 0 1.699.75 1.699 1.659 0 .963-.767 1.659-1.699 1.659-.986 0-1.698-.75-1.698-1.66 0-.427.164-.855.493-1.176Z"/><path fill="#fff" d="M20.675 17.846c.383-.374.438-.91.11-1.445-.275-.428-.768-.642-1.316-.535a1.87 1.87 0 0 0-.657.321c-1.698 1.124-4 1.07-5.698-.053l-.328-.16c-.603-.268-1.206-.161-1.534.374-.384.535-.329 1.124.164 1.605.11.107.22.16.274.268l.055.053c.767.589 1.698.963 2.903 1.124l-.712.696-1.863 1.819c-.164.16-.383.428-.383.803 0 .481.274.963.767 1.177.164.107.329.107.493.107.274 0 .603-.107.822-.375l2.136-2.087.055-.053s.055 0 .055.053c.438.482.931.91 1.37 1.392l.657.642c.274.268.493.375.822.375.493.053 1.04-.268 1.26-.75.219-.428.11-.963-.274-1.284-.548-.535-1.096-1.124-1.699-1.659l-.93-.91c.492-.053 1.04-.16 1.533-.374.822-.268 1.424-.642 1.918-1.124Z"/></svg>