<svg xmlns="http://www.w3.org/2000/svg" fill="none" viewBox="0 0 32 32"><rect width="32" height="32" fill="#2FA0D6" rx="16"/><path fill="#fff" d="m8.28 15.72 3.679 1.376 1.434 4.628c.062.312.436.375.686.187l2.057-1.688c.187-.188.499-.188.748 0l3.679 2.689c.25.188.623.062.686-.25l2.743-13.133c.062-.313-.25-.626-.561-.5L8.28 14.906c-.375.125-.375.688 0 .813Zm4.926.688 7.232-4.44c.125-.063.25.125.125.187l-5.923 5.566c-.187.188-.374.438-.374.75l-.187 1.502c0 .187-.312.25-.374 0l-.748-2.752c-.188-.313-.063-.688.249-.813Z"/></svg>