<svg xmlns="http://www.w3.org/2000/svg" fill="none" viewBox="0 0 32 32"><rect width="32" height="32" fill="#7C509A" rx="16"/><path fill="#fff" d="M20.384 9.38a25.816 25.816 0 0 0-8.824 0c-1.284.253-2.904 1.67-3.183 2.785a14.557 14.557 0 0 0 0 6.582c.335 1.114 1.955 2.532 3.183 2.785.056 0 .112.05.112.102v3.19c0 .151.223.253.335.1l1.675-1.569s1.34-1.266 1.564-1.468c0 0 .056-.05.112-.05 1.675.05 3.406-.102 5.082-.355 1.284-.253 2.904-1.671 3.183-2.785a14.554 14.554 0 0 0 0-6.583c-.335-1.063-1.955-2.481-3.24-2.734Zm.056 9.52c-.28.506-.614.91-1.173 1.164l-.503.152c-.223-.05-.39-.102-.558-.152-1.787-.658-3.463-1.57-4.803-2.886-.726-.76-1.34-1.62-1.843-2.532-.223-.456-.447-.86-.614-1.317-.168-.405.112-.81.39-1.114.28-.303.615-.506 1.006-.658.28-.152.558-.05.782.152.447.506.893 1.013 1.228 1.57.224.354.168.76-.223 1.012-.111.051-.167.102-.28.203-.055.05-.167.101-.223.203a.453.453 0 0 0-.055.455c.447 1.165 1.284 2.076 2.569 2.583.223.1.39.152.67.152.39-.051.558-.456.838-.659.279-.202.614-.202.949-.05.28.151.558.354.893.557.28.202.559.354.838.557.168.1.224.354.112.607Zm-2.346-3.798c-.111 0-.056 0 0 0-.223 0-.279-.102-.335-.254 0-.1 0-.253-.056-.354a.956.956 0 0 0-.39-.557l-.336-.152c-.167-.05-.279-.05-.447-.05-.167-.051-.223-.152-.223-.304 0-.102.168-.203.28-.203.893.05 1.563.506 1.675 1.469v.202c0 .101-.056.203-.168.203Zm-.558-2.228c-.28-.102-.559-.203-.894-.254-.111 0-.279-.05-.39-.05-.168 0-.28-.101-.224-.253 0-.152.112-.254.28-.203a5.37 5.37 0 0 1 1.563.354c1.005.456 1.564 1.216 1.731 2.229v.658c-.056.202-.447.253-.503 0 0-.05-.055-.152-.055-.203a2.73 2.73 0 0 0-.335-1.316 2.925 2.925 0 0 0-1.173-.962Zm3.015 3.038c-.167 0-.279-.152-.279-.304 0-.304-.056-.608-.111-.912-.224-1.62-1.676-2.936-3.407-3.19-.28-.05-.559-.05-.782-.1-.167 0-.39 0-.447-.203-.056-.152.112-.304.28-.304h.111c.112 0 2.29.05 0 0 2.346.05 4.3 1.468 4.691 3.595.056.354.112.709.112 1.114.112.152 0 .304-.168.304Z"/></svg>