<svg xmlns="http://www.w3.org/2000/svg" fill="none" viewBox="0 0 32 32"><rect width="32" height="32" fill="#07F" rx="16"/><path fill="#fff" d="M23.851 19.973c0-.069-.063-.069-.063-.137-.255-.548-.828-1.233-1.592-1.987-.382-.342-.573-.616-.7-.753-.191-.274-.191-.48-.127-.753.063-.206.318-.549.764-1.165.254-.342.382-.548.573-.753.954-1.37 1.4-2.26 1.273-2.672l-.064-.068c-.064-.069-.127-.137-.255-.137-.127-.069-.318-.069-.509 0h-2.865l-.063.068c-.064.069-.064.069-.064.137-.255.754-.573 1.37-.891 2.055-.191.343-.382.685-.573.96-.191.273-.318.479-.446.616-.127.136-.254.205-.318.342-.064.068-.191.137-.191.068-.064 0-.127 0-.127-.068l-.191-.206c-.064-.068-.064-.205-.128-.342v-3.424c0-.07-.063-.206-.063-.274l-.191-.206c-.064-.068-.191-.068-.255-.137A5.325 5.325 0 0 0 15.64 11c-1.018 0-1.719.069-1.973.206-.128.068-.255.136-.319.274-.127.136-.127.205-.063.205.318.068.573.205.7.41l.064.138c.063.068.063.205.127.41.064.206.064.412.064.686v1.096c0 .342-.064.548-.064.753 0 .206-.064.342-.127.411-.064.137-.064.205-.128.205 0 0 0 .069-.063.069-.064 0-.128.069-.255.069-.064 0-.19-.069-.255-.138a.798.798 0 0 1-.318-.342c-.127-.137-.255-.342-.382-.616-.127-.274-.318-.548-.445-.96l-.128-.273c-.063-.137-.19-.411-.318-.754-.127-.342-.255-.616-.382-.959a.942.942 0 0 0-.191-.274h-.064s-.063-.068-.127-.068-.127-.069-.19-.069H8.508c-.254 0-.382.069-.445.137L8 11.685v.137c0 .068 0 .137.064.274.318.822.7 1.644 1.082 2.466.382.753.764 1.438 1.018 1.918.319.479.573.958.892 1.37.318.41.509.684.573.821l.254.274.191.206c.128.137.319.342.573.548.255.205.573.41.891.616.319.205.7.342 1.083.48.445.136.827.205 1.21.136h.954a.56.56 0 0 0 .446-.205l.063-.069c0-.068.064-.068.064-.137v-.273c0-.274 0-.48.064-.685.063-.206.063-.343.127-.48a.942.942 0 0 1 .191-.274l.127-.137h.064c.127-.068.318 0 .446.137.19.137.382.343.509.548.127.206.318.411.573.685.255.274.445.48.573.548l.19.137c.128.069.255.137.446.206.191.068.319.068.446.068l2.164-.069c.191 0 .382-.068.51-.137.127-.068.19-.137.19-.274v-.273c-.127-.137-.127-.206-.127-.274Z"/></svg>