<svg xmlns="http://www.w3.org/2000/svg" fill="none" viewBox="0 0 32 32"><rect width="32" height="32" fill="#48C95F" rx="16"/><path fill="#fff" d="M21.659 10.333A7.945 7.945 0 0 0 16.027 8c-4.404 0-7.972 3.556-7.972 7.944 0 1.39.39 2.778 1.059 3.945L8 24l4.237-1.111a8.151 8.151 0 0 0 3.79.944c4.405 0 7.973-3.555 7.973-7.944-.056-2.056-.836-4.056-2.341-5.556Zm-1.784 8.445c-.168.444-.948.889-1.338.944-.335.056-.78.056-1.227-.055-.279-.111-.669-.223-1.115-.445-2.007-.833-3.29-2.833-3.4-3-.112-.11-.837-1.055-.837-2.055 0-1 .502-1.445.67-1.667.166-.222.39-.222.557-.222h.39c.111 0 .279-.056.446.333.167.389.557 1.389.613 1.445a.353.353 0 0 1 0 .333 1.16 1.16 0 0 1-.223.333c-.111.111-.223.278-.279.334-.111.11-.223.222-.111.388.111.223.502.834 1.115 1.39.78.666 1.394.888 1.617 1 .223.11.334.055.446-.056.111-.111.501-.556.613-.778.111-.222.279-.167.446-.111.167.055 1.17.555 1.338.667.223.11.334.166.39.222.056.166.056.555-.111 1Z"/></svg>