<svg xmlns="http://www.w3.org/2000/svg" fill="none" viewBox="0 0 32 32"><rect width="32" height="32" fill="#F40000" rx="16"/><path fill="#fff" d="M23 14.838c0-.303-.051-.656-.051-1.06a69.05 69.05 0 0 0-.153-1.162c-.103-.404-.256-.707-.562-.96-.256-.252-.614-.404-.971-.454C20.088 11.05 18.35 11 16 11s-4.139.05-5.263.202c-.357.05-.715.202-.97.455a2.01 2.01 0 0 0-.563.96 4.004 4.004 0 0 0-.153 1.16C9 14.183 9 14.536 9 14.839v2.324c0 .303.051.656.051 1.06.051.404.102.808.153 1.162.103.404.256.707.562.96.256.252.614.403.971.454C11.912 20.95 13.65 21 16 21s4.139-.05 5.263-.202c.357-.05.715-.202.97-.455a2.01 2.01 0 0 0 .563-.96c.102-.353.153-.706.153-1.16.051-.405.051-.758.051-1.061v-2.324Zm-4.292 1.566-4.036 2.475a.392.392 0 0 1-.256.1c-.102 0-.153 0-.255-.05a.53.53 0 0 1-.256-.454v-5c0-.202.102-.354.256-.455a.469.469 0 0 1 .51 0l4.037 2.475c.153.101.256.253.256.404 0 .152-.103.404-.256.505Z"/></svg>