<svg width="48" height="48" viewBox="0 0 48 48" fill="none" xmlns="http://www.w3.org/2000/svg">
<g clip-path="url(#clip0_3638_9231)">
<path d="M3.525 0.178125C3.38437 0.271875 3.17812 0.478125 3.08437 0.61875C2.91562 0.88125 2.90625 1.17188 2.90625 7.03125C2.90625 12.8906 2.91562 13.1812 3.08437 13.4437C3.17812 13.5844 3.38437 13.7906 3.525 13.8844C3.77812 14.0531 4.03125 14.0625 7.575 14.0625H11.3437V17.0625H6.16875C1.24688 17.0625 0.975 17.0719 0.7125 17.2406C0.571875 17.3344 0.365625 17.5406 0.271875 17.6812C0.103125 17.9437 0.09375 18.4031 0.09375 32.5312C0.09375 46.6594 0.103125 47.1187 0.271875 47.3812C0.365625 47.5219 0.571875 47.7281 0.7125 47.8219C0.965625 47.9906 1.20937 48 4.3125 48C8.84062 48 8.53125 48.2344 8.53125 44.7375V42.375H16.9687V44.7375C16.9687 47.3531 16.9875 47.4187 17.5875 47.8219C17.8406 47.9906 18.0844 48 21.1875 48C25.7156 48 25.4062 48.2344 25.4062 44.7375V42.375H39.4687V45.1875H38.0437C36.7969 45.1875 36.5719 45.2156 36.3375 45.3656C35.9062 45.6562 35.7187 46.0125 35.7187 46.5937C35.7187 47.175 35.9062 47.5312 36.3375 47.8219C36.5906 47.9906 36.8531 48 40.875 48C44.8969 48 45.1594 47.9906 45.4125 47.8219C45.8437 47.5312 46.0312 47.175 46.0312 46.5937C46.0312 46.0125 45.8437 45.6562 45.4125 45.3656C45.1781 45.2156 44.9531 45.1875 43.7156 45.1875H42.2812V42.3L43.05 42.0562C44.175 41.7094 44.925 41.2312 45.8906 40.2656C46.8656 39.3 47.4 38.3625 47.7187 37.0875C47.9719 36.0844 47.9719 34.6031 47.7187 33.6C47.4 32.325 46.8656 31.3875 45.8906 30.4219C44.925 29.4562 44.175 28.9781 43.0594 28.6312L42.2812 28.3875V23.1656C42.2812 18.2156 42.2719 17.9437 42.1031 17.6812C42.0094 17.5406 41.8031 17.3344 41.6625 17.2406C41.4 17.0719 41.1094 17.0625 35.25 17.0625C29.3906 17.0625 29.1 17.0719 28.8375 17.2406C28.6969 17.3344 28.4906 17.5406 28.3969 17.6812C28.2281 17.9437 28.2187 18.2156 28.2187 23.1281V28.3125H25.4062V23.1281C25.4062 18.2156 25.3969 17.9437 25.2281 17.6812C25.1344 17.5406 24.9281 17.3344 24.7875 17.2406C24.525 17.0719 24.2531 17.0625 19.3406 17.0625H14.1562V14.0625H17.9344C21.4687 14.0625 21.7219 14.0531 21.975 13.8844C22.1156 13.7906 22.3219 13.5844 22.4156 13.4437C22.5844 13.1812 22.5937 12.8906 22.5937 7.03125C22.5937 1.17188 22.5844 0.88125 22.4156 0.61875C22.3219 0.478125 22.1156 0.271875 21.975 0.178125C21.7125 0.00937536 21.3656 3.57628e-07 12.75 3.57628e-07C4.13437 3.57628e-07 3.7875 0.00937536 3.525 0.178125ZM19.7812 11.25H5.71875V2.8125H19.7812V11.25ZM22.5937 39.5625H2.90625V19.875H22.5937V39.5625ZM33.8437 21.3C33.8437 22.875 33.9 23.0719 34.4625 23.4469C34.8281 23.6906 35.6719 23.6906 36.0375 23.4469C36.6 23.0719 36.6562 22.875 36.6562 21.3V19.875H39.4687V28.3125H31.0312V19.875H33.8437V21.3ZM41.3344 31.2187C42.7687 31.4062 44.0344 32.325 44.6531 33.6281C44.9344 34.2281 44.9531 34.3219 44.9531 35.3437C44.9531 36.3656 44.9344 36.4594 44.6531 37.0594C44.0344 38.3625 42.7687 39.2812 41.3344 39.4687C40.9406 39.5156 37.3594 39.5625 33.0281 39.5625H25.4062V36.75H33.4031C41.0719 36.75 41.4 36.7406 41.6625 36.5719C42.0937 36.2812 42.2812 35.925 42.2812 35.3437C42.2812 34.7625 42.0937 34.4062 41.6625 34.1156C41.4 33.9469 41.0719 33.9375 33.4031 33.9375H25.4062V31.125H33.0281C37.3594 31.125 40.9406 31.1719 41.3344 31.2187ZM5.71875 45.1875H2.90625V42.375H5.71875V45.1875ZM22.5937 45.1875H19.7812V42.375H22.5937V45.1875Z" fill="white"/>
<path d="M9.15 5.80312C8.71875 6.09375 8.53125 6.45 8.53125 7.03125C8.53125 7.6125 8.71875 7.96875 9.15 8.25937C9.40313 8.42812 9.64687 8.4375 12.75 8.4375C15.8531 8.4375 16.0969 8.42812 16.35 8.25937C16.7813 7.96875 16.9688 7.6125 16.9688 7.03125C16.9688 6.45 16.7813 6.09375 16.35 5.80312C16.0969 5.63437 15.8531 5.625 12.75 5.625C9.64687 5.625 9.40313 5.63437 9.15 5.80312Z" fill="white"/>
<path d="M14.775 22.8656C14.3438 23.1469 14.1562 23.5219 14.1562 24.0656V24.5625H10.3875C6.84375 24.5625 6.59063 24.5719 6.3375 24.7406C5.90625 25.0313 5.71875 25.3875 5.71875 25.9687C5.71875 26.55 5.90625 26.9062 6.3375 27.1969C6.59063 27.3656 6.84375 27.375 10.3875 27.375H14.1562V27.8625C14.1562 28.7344 14.6812 29.25 15.5625 29.25C16.4438 29.25 16.9688 28.7344 16.9688 27.8625V27.375H17.9344C18.7125 27.375 18.9375 27.3375 19.1625 27.1969C19.5938 26.9062 19.7812 26.55 19.7812 25.9687C19.7812 25.3875 19.5938 25.0313 19.1625 24.7406C18.9375 24.6 18.7125 24.5625 17.9344 24.5625H16.9688V24.0656C16.9688 23.2031 16.4438 22.6875 15.5625 22.6875C15.2156 22.6875 14.9625 22.7437 14.775 22.8656Z" fill="white"/>
<path d="M8.2125 30.3656C7.78125 30.6469 7.59375 31.0219 7.59375 31.5656V32.0625H7.10625C6.23438 32.0625 5.71875 32.5875 5.71875 33.4687C5.71875 34.35 6.23438 34.875 7.10625 34.875H7.59375V35.3625C7.59375 36.2344 8.11875 36.75 9 36.75C9.88125 36.75 10.4063 36.2344 10.4063 35.3625V34.875H14.6531C18.6469 34.875 18.9094 34.8656 19.1625 34.6969C19.5938 34.4062 19.7812 34.05 19.7812 33.4687C19.7812 32.8875 19.5938 32.5312 19.1625 32.2406C18.9094 32.0719 18.6469 32.0625 14.6531 32.0625H10.4063V31.5656C10.4063 30.7031 9.88125 30.1875 9 30.1875C8.65313 30.1875 8.4 30.2437 8.2125 30.3656Z" fill="white"/>
</g>
<defs>
<clipPath id="clip0_3638_9231">
<rect width="48" height="48" fill="white"/>
</clipPath>
</defs>
</svg>
