<svg width="48" height="48" viewBox="0 0 48 48" fill="none" xmlns="http://www.w3.org/2000/svg">
<g clip-path="url(#clip0_3707_70)">
<path d="M21.1406 4.9875L18.3281 6.40313L15.1594 6.9375C13.425 7.22813 11.9813 7.49063 11.9625 7.50938C11.9438 7.52813 11.2875 8.79375 10.4906 10.3125L9.05625 13.0781L7.64063 14.55L6.23438 16.0219L3.12188 16.0313C0.4875 16.0313 0 16.05 0 16.1625C0 16.2375 0.50625 18.0281 1.11563 20.1469L2.23125 24L1.11563 27.8531C0.50625 29.9719 0 31.7625 0 31.8375C0 31.95 0.4875 31.9688 3.10313 31.9688H6.21563L9.0375 34.9031L10.4813 37.6781C11.2781 39.2063 11.9438 40.4719 11.9625 40.4906C11.9813 40.5094 13.425 40.7719 15.1594 41.0625L18.3281 41.5969L21.1594 43.0125L24 44.4375L26.8781 43.0031L29.7656 41.5594L32.8125 41.0625C34.4906 40.7906 35.9063 40.5188 35.9719 40.4625C36.0375 40.4063 36.7219 39.1406 37.5 37.65L38.925 34.9313L41.7563 31.9688H44.8781C47.475 31.9688 48 31.95 48 31.8375C48 31.7719 47.475 29.9719 46.8281 27.8531L45.6469 24L46.8281 20.1469C47.475 18.0281 48 16.2281 48 16.1625C48 16.05 47.475 16.0313 44.8781 16.0313H41.7469L40.3313 14.55L38.9156 13.0594L37.4906 10.3031C36.7031 8.78438 36.0469 7.52813 36.0281 7.50938C36.0188 7.49063 34.575 7.22813 32.8406 6.9375L29.6719 6.40313L26.8406 4.9875C25.275 4.2 23.9906 3.5625 23.9813 3.57188C23.9625 3.57188 22.6875 4.20938 21.1406 4.9875ZM26.4188 8.025L28.8281 9.20625L31.3125 9.61875C32.6813 9.85313 33.8719 10.0594 33.9563 10.0875C34.05 10.1156 34.6031 11.0813 35.3063 12.45C36.3563 14.4844 36.5719 14.8406 37.1063 15.3938L37.7156 16.0313H34.2656L33.7125 15.3938C31.7719 13.1813 29.1 11.6906 26.2031 11.2031C24.9844 10.9969 22.9313 10.9969 21.75 11.2031C18.8438 11.7 15.6656 13.5188 14.0625 15.6L13.7344 16.0219L12 16.0313H10.275L10.8469 15.4406C11.3344 14.9438 11.5875 14.5313 12.6094 12.5625C13.2656 11.2969 13.8563 10.2188 13.9125 10.1625C13.9688 10.1063 15.1594 9.87188 16.5469 9.64688L19.0781 9.24375L21.4688 8.04375C22.7813 7.3875 23.8875 6.85313 23.9344 6.85313C23.9719 6.84375 25.0875 7.37813 26.4188 8.025ZM26.0344 14.1188C27.45 14.4094 28.8938 15.075 30.0938 15.9938C30.7781 16.5094 31.9313 17.7281 32.3719 18.4031C34.3125 21.3375 34.6031 25.0875 33.1406 28.1906C32.5969 29.3438 32.1563 29.9906 31.3125 30.8813C29.8031 32.4656 28.0688 33.45 26.0156 33.9C25.0031 34.1156 23.0063 34.1156 21.9844 33.9C18.4594 33.1312 15.6281 30.6375 14.4563 27.2813C14.0531 26.1188 13.9219 25.3125 13.9219 24C13.9219 21.6844 14.5688 19.7813 15.9938 17.8781C17.5688 15.7875 20.0719 14.3344 22.7344 13.9781C23.5781 13.8563 25.1156 13.9219 26.0344 14.1188ZM11.7 19.7344C11.2125 21.1688 11.0344 22.275 11.0344 24C11.0344 25.725 11.2125 26.8313 11.7 28.2656L11.9813 29.0625H7.9125C5.40938 29.0625 3.84375 29.025 3.84375 28.9781C3.84375 28.9219 4.1625 27.7875 4.55625 26.4469L5.26875 24L4.55625 21.5531C4.1625 20.2125 3.84375 19.0781 3.84375 19.0219C3.84375 18.975 5.40938 18.9375 7.9125 18.9375H11.9813L11.7 19.7344ZM44.1094 19.05C43.8094 19.95 42.6563 23.8688 42.6563 24C42.6563 24.0938 42.9938 25.2563 43.3969 26.5875L44.1375 29.0156L40.0969 29.0438C37.8844 29.0531 36.0563 29.0531 36.0375 29.0344C36.0188 29.025 36.1312 28.65 36.2812 28.2188C36.7875 26.7188 36.8906 26.0156 36.8906 23.9063C36.8813 22.1438 36.8625 21.9 36.6375 21C36.4969 20.4563 36.3 19.7906 36.1969 19.5188C36.0844 19.2469 36 19.0031 36 18.9844C36 18.9563 37.8375 18.9375 40.0781 18.9375C43.2938 18.9375 44.1375 18.9656 44.1094 19.05ZM14.2406 32.5875C15.9375 34.6406 18.9 36.3094 21.75 36.7969C22.9406 37.0031 24.9844 37.0031 26.2031 36.7969C29.1281 36.3 31.7719 34.8188 33.7125 32.6063L34.2656 31.9688H37.725L37.1438 32.5594C36.6281 33.075 36.4031 33.4406 35.3156 35.5313L34.0688 37.9125L28.8094 38.7938L26.3719 39.9844L23.9438 41.1656L21.5063 39.9656L19.0781 38.7563L16.5469 38.3531C15.1594 38.1281 13.9688 37.8937 13.9031 37.8375C13.8469 37.7812 13.2656 36.7031 12.6094 35.4375C11.5781 33.4594 11.3344 33.0563 10.8469 32.55L10.275 31.9688L12 31.9781H13.7344L14.2406 32.5875Z" fill="white"/>
<path d="M25.125 22.4531L22.3594 25.2188L20.0156 22.875L17.9531 24.9375L22.3594 29.3438L30 21.7031L28.9969 20.7C28.4438 20.1375 27.9656 19.6875 27.9375 19.6875C27.9094 19.6875 26.6438 20.9344 25.125 22.4531Z" fill="white"/>
</g>
<defs>
<clipPath id="clip0_3707_70">
<rect width="48" height="48" fill="white"/>
</clipPath>
</defs>
</svg>
