<svg width="48" height="48" viewBox="0 0 48 48" fill="none" xmlns="http://www.w3.org/2000/svg">
<g clip-path="url(#clip0_3707_274)">
<path d="M21.6473 0.225001C21.3192 0.450001 21.1692 0.703127 21.0567 1.2375C21.0098 1.44375 20.9442 1.5 20.7379 1.5C20.3817 1.5 19.9129 1.80938 19.7254 2.16563C19.5286 2.55938 19.5286 3.25313 19.7254 3.64688C19.9036 3.975 20.3723 4.3125 20.6723 4.3125C20.9161 4.3125 21.0942 4.48125 21.0942 4.70625C21.0942 5.00625 21.3754 5.4375 21.6848 5.625C22.0973 5.8875 22.8942 5.87813 23.3161 5.61563C23.6629 5.4 23.9067 5.00625 23.9067 4.65C23.9067 4.4625 23.9629 4.39688 24.1692 4.35C25.0317 4.1625 25.4067 3.73125 25.4067 2.90625C25.4067 2.10938 24.8911 1.5 24.2161 1.5C23.9348 1.5 23.9067 1.47188 23.9067 1.19063C23.9067 0.834377 23.6536 0.421876 23.2879 0.178126C22.8754 -0.0843737 22.0786 -0.0656237 21.6473 0.225001Z" fill="white"/>
<path d="M40.0786 0.928124C39.9286 1.02187 37.1067 3.80625 33.8161 7.09687L27.8348 13.0969L27.4036 12.8719C26.4567 12.3937 26.2598 12.5156 23.5973 15.1687C22.3692 16.3875 21.2723 17.5594 21.1692 17.7562C20.9348 18.2062 20.9817 18.825 21.2629 19.2094L21.4504 19.4719L16.7348 24.1875L15.6567 23.7187C12.2629 22.2656 8.86918 22.1156 5.96293 23.2875C4.35043 23.9344 2.76605 25.1625 1.81918 26.4937C1.23793 27.3094 0.591054 28.7156 0.309804 29.7844C-0.008946 31.0031 -0.102696 33.4406 0.131679 34.7344C1.16293 40.7062 5.96293 45.7125 11.9067 47.0156C12.9661 47.25 15.4879 47.3062 16.5473 47.1187C20.6161 46.4156 23.4379 43.7719 24.4504 39.75C24.6661 38.8781 24.6942 38.5781 24.6942 37.125C24.6942 35.7844 24.6567 35.3062 24.4879 34.5281C24.2442 33.4219 23.8504 32.25 23.3723 31.2469L23.0348 30.5437L27.7786 25.8L28.0223 25.9781C28.1629 26.0812 28.4254 26.1844 28.6223 26.2219C29.3348 26.3344 29.6067 26.1375 32.0817 23.6531C34.1067 21.6094 34.4067 21.2812 34.5004 20.9062C34.6223 20.4562 34.5379 19.9875 34.2754 19.6406C34.1442 19.4625 34.2004 19.3875 35.2317 18.3562L36.3286 17.25L38.1098 19.0219C39.6286 20.5406 39.9473 20.8031 40.2473 20.8594C41.0629 21.0094 41.1379 20.9531 44.5598 17.55C46.3036 15.8062 47.7942 14.2781 47.8692 14.1375C48.0286 13.8375 48.0379 13.1062 47.8973 12.8156C47.8411 12.7031 47.0254 11.8406 46.0973 10.9031L44.3911 9.1875L45.3473 8.23125C45.8629 7.69687 46.3411 7.17187 46.3973 7.05937C46.5473 6.76875 46.5286 6.0375 46.3692 5.7375C46.2004 5.4375 41.7567 1.00312 41.4661 0.853124C41.1379 0.684374 40.3973 0.731249 40.0786 0.928124ZM32.0629 17.3906L30.9661 16.2844L29.8598 15.1875L40.8286 4.21875L43.0317 6.42187L32.0629 17.3906ZM40.5942 17.3906L39.4973 16.2844L38.3911 15.1875L42.3286 11.25L44.5317 13.4531L40.5942 17.3906ZM28.9036 18.3562L31.0317 20.4844L28.8286 22.6875L24.5161 18.375L25.5942 17.2969C26.1848 16.7062 26.6911 16.2187 26.7192 16.2187C26.7473 16.2187 27.7317 17.175 28.9036 18.3562ZM24.6567 22.6406L25.7348 23.7187L21.4036 28.05L20.2973 26.9531L19.2004 25.8469L21.3379 23.7094C22.5192 22.5281 23.5036 21.5625 23.5317 21.5625C23.5598 21.5625 24.0661 22.05 24.6567 22.6406ZM12.5629 25.725C15.2067 26.4187 17.4848 27.9375 19.2942 30.2156C22.5754 34.35 22.6786 39.8344 19.5286 42.6469C18.9286 43.1906 17.6067 43.8844 16.7348 44.1187C15.8817 44.3531 13.8286 44.4 12.8161 44.2125C10.3692 43.7531 8.19418 42.525 6.2723 40.5187C4.52855 38.7094 3.46918 36.7031 3.03793 34.4156C2.8223 33.2719 2.8973 31.2375 3.18793 30.3281C3.90043 28.0687 5.43793 26.4937 7.56605 25.8094C8.6348 25.4719 9.1223 25.4156 10.4536 25.4531C11.3629 25.4812 11.8973 25.5469 12.5629 25.725Z" fill="white"/>
<path d="M8.58793 28.6875C6.6848 29.2969 5.7098 31.05 5.98168 33.375C6.43168 37.1906 10.0036 40.7719 13.8567 41.2687C15.4692 41.475 16.8004 41.0531 17.7473 40.0312C18.5348 39.1875 18.6942 38.6906 18.7036 37.125C18.7036 36.0562 18.6661 35.7562 18.4879 35.1562C17.5223 32.1 14.7754 29.4469 11.7754 28.6875C10.7911 28.4437 9.36605 28.4344 8.58793 28.6875ZM11.6067 31.7062C12.5536 32.1 13.2004 32.5312 13.9598 33.2906C15.1129 34.4437 15.7504 35.7 15.8161 36.9375C15.8629 37.7625 15.7504 38.0344 15.2817 38.2781C15.0286 38.4094 14.8317 38.4375 14.3911 38.4C11.8317 38.1562 9.17855 35.5406 8.85043 32.9437C8.77543 32.3437 8.92543 31.8562 9.26293 31.5844C9.48793 31.4062 9.6098 31.3875 10.2661 31.425C10.7817 31.4531 11.2036 31.5469 11.6067 31.7062Z" fill="white"/>
<path d="M7.3973 1.70625C7.1348 1.88437 6.8723 2.325 5.96293 4.13437L4.83793 6.34687L2.70043 7.41562C1.51918 8.00625 0.441054 8.59687 0.300429 8.74687C0.103554 8.95312 0.047304 9.1125 0.019179 9.59062C-0.037071 10.5562 0.0473037 10.6406 2.6348 11.9437L4.8473 13.0687L5.96293 15.2719C6.70355 16.7437 7.16293 17.5406 7.33168 17.6625C7.71605 17.9344 8.41918 17.9719 8.88793 17.7281C9.25355 17.5406 9.32855 17.4187 10.4067 15.2812L11.5317 13.0312L13.7817 11.9062C15.9192 10.8281 16.0411 10.7531 16.2286 10.3875C16.3786 10.0969 16.4161 9.88125 16.3879 9.55312C16.3129 8.76562 16.1067 8.60625 13.7161 7.41562L11.5692 6.34687L10.4442 4.13437C9.17855 1.63125 9.06605 1.5 8.20355 1.5C7.85668 1.5 7.6223 1.55625 7.3973 1.70625ZM9.41293 8.42812C9.51605 8.54062 10.0692 8.87812 10.6317 9.15937L11.6629 9.675L10.6036 10.2187C10.0223 10.5187 9.47855 10.8281 9.40355 10.9031C9.32855 10.9781 9.01918 11.5219 8.71918 12.1031L8.17543 13.1625L7.6598 12.1219C7.36918 11.55 7.01293 10.9875 6.86293 10.8656C6.7223 10.7437 6.16918 10.4344 5.64418 10.1719L4.68793 9.7125L5.71918 9.1875C6.28168 8.89687 6.8348 8.57812 6.93793 8.48437C7.04105 8.39062 7.36918 7.8375 7.66918 7.25625L8.20355 6.1875L8.7098 7.2C8.98168 7.75312 9.30043 8.30625 9.41293 8.42812Z" fill="white"/>
<path d="M40.5942 26.5125C40.3129 26.6625 40.1536 26.9156 39.3848 28.4156L38.5036 30.15L36.7598 31.0406C35.0911 31.8844 35.0067 31.9406 34.8098 32.3437C34.5473 32.8594 34.5379 33.2062 34.7911 33.7219C34.9786 34.1062 35.0629 34.1625 36.7317 35.0062L38.4848 35.8969L39.3473 37.6125C40.1348 39.1969 40.2379 39.3469 40.5942 39.5531C41.0629 39.8156 41.7661 39.7875 42.1692 39.4969C42.3286 39.3844 42.7317 38.7187 43.2754 37.6406L44.1286 35.9531L45.8536 35.0625C47.8223 34.0406 48.0004 33.8812 48.0004 33.0469C48.0004 32.2125 47.8223 32.0437 45.8911 31.0687L44.2036 30.2156L43.3129 28.4906C42.6098 27.1312 42.3567 26.7187 42.1036 26.55C41.7098 26.2969 41.0536 26.2781 40.5942 26.5125ZM41.7473 31.8656C41.9911 32.2875 42.1598 32.4375 42.6754 32.7187L43.3129 33.0562L42.7317 33.3375C42.1411 33.6187 41.8879 33.8812 41.5317 34.5937L41.3161 35.0062L41.0911 34.5469C40.7723 33.9187 40.4536 33.5906 39.8442 33.2812L39.3379 33.0187L39.9004 32.7375C40.5379 32.4187 40.8286 32.1187 41.1098 31.5094C41.2411 31.2094 41.3161 31.1344 41.3629 31.2281C41.4098 31.3031 41.5786 31.5844 41.7473 31.8656Z" fill="white"/>
<path d="M31.2192 42.1875C31.0411 42.225 30.7973 42.3094 30.6848 42.375C30.4411 42.5344 30.0942 43.125 30.0942 43.3875C30.0942 43.575 29.9254 43.6875 29.6254 43.6875C29.4004 43.6875 28.9036 44.1094 28.7348 44.4469C28.3129 45.2625 28.8379 46.3594 29.7098 46.4719C30.0473 46.5187 30.0942 46.5562 30.0942 46.7719C30.0942 47.4094 30.7879 48 31.5286 48C32.3067 48 32.8317 47.5781 32.9536 46.875C33.0098 46.5469 33.0473 46.5 33.2629 46.5C33.5911 46.5 34.0692 46.2094 34.2848 45.8812C34.5098 45.5344 34.5098 44.6531 34.2848 44.3156C34.0786 43.9969 33.7411 43.7719 33.3473 43.6969C33.0942 43.6406 33.0379 43.575 32.9348 43.2094C32.7192 42.4594 32.0254 42.0469 31.2192 42.1875Z" fill="white"/>
</g>
<defs>
<clipPath id="clip0_3707_274">
<rect width="48" height="48" fill="white"/>
</clipPath>
</defs>
</svg>
