<svg width="48" height="48" viewBox="0 0 48 48" fill="none" xmlns="http://www.w3.org/2000/svg">
<g clip-path="url(#clip0_3707_6)">
<path d="M9.70346 0.178124C9.55346 0.271874 7.99721 1.78125 6.26283 3.525C4.15346 5.65312 3.08471 6.7875 3.03783 6.96562C2.91596 7.4625 3.05658 8.05312 3.36596 8.41875C4.08783 9.2625 4.90346 10.4156 5.24096 11.0625C5.87846 12.3 5.95346 12.6375 5.93471 14.1094C5.91596 16.3875 5.60658 17.7656 4.49096 20.6531C3.28158 23.7656 3.04721 25.0406 3.04721 28.3125C3.05658 30.5813 3.05658 30.6281 3.34721 31.7063C3.86283 33.6469 4.80033 35.3156 6.20658 36.7969C8.07221 38.775 10.4347 40.2563 15.0566 42.3656C20.2128 44.7094 21.741 45.675 22.641 47.1469C23.0253 47.7938 23.3628 48 24.0003 48C24.6378 48 24.9753 47.7938 25.3597 47.1469C26.241 45.7125 27.9003 44.6438 32.5316 42.5531C37.0878 40.5 39.4128 39.1031 41.3347 37.2656C42.9566 35.7094 44.091 33.8156 44.6441 31.7344C44.9441 30.6187 44.9441 30.5906 44.9535 28.3125C44.9535 25.0406 44.7191 23.7656 43.5097 20.6531C42.3941 17.7656 42.0847 16.3875 42.066 14.1094C42.0472 12.6375 42.1222 12.3 42.7597 11.0625C43.0972 10.4156 43.9128 9.2625 44.6347 8.41875C44.9441 8.05312 45.0847 7.4625 44.9628 6.96562C44.8878 6.675 38.6816 0.374999 38.2316 0.131249C37.8753 -0.056251 37.1347 -0.037501 36.7972 0.178124C36.6472 0.271874 36.2253 0.590624 35.8597 0.881249C35.1191 1.48125 33.6285 2.25 32.7191 2.50312C31.7628 2.76562 29.6253 2.7375 28.641 2.45625C27.6285 2.16562 26.4941 1.59375 25.8191 1.03125C24.6191 0.018749 24.5816 -9.53674e-07 24.0003 -9.53674e-07C23.4191 -9.53674e-07 23.3816 0.018749 22.1816 1.03125C21.5066 1.59375 20.3722 2.16562 19.3597 2.45625C18.3753 2.7375 16.2378 2.76562 15.2816 2.50312C14.3722 2.25 12.8816 1.48125 12.141 0.881249C11.7847 0.590624 11.3628 0.271874 11.2035 0.178124C10.8285 -0.056251 10.0785 -0.056251 9.70346 0.178124ZM11.2878 3.88125C12.1597 4.45312 13.5003 5.05312 14.5035 5.31562C15.6285 5.60625 17.5785 5.70937 18.7597 5.53125C20.3535 5.30625 22.2097 4.59375 23.4472 3.75L24.0003 3.375L24.5722 3.75937C25.8378 4.6125 27.6472 5.30625 29.2503 5.54062C30.4222 5.70937 32.3628 5.60625 33.4972 5.30625C34.5191 5.04375 36.0285 4.35937 36.891 3.76875L37.4535 3.38437L39.5066 5.4375L41.5597 7.48125L40.9785 8.34375C40.2753 9.36562 39.6566 10.65 39.3566 11.6719C39.1691 12.3188 39.141 12.6281 39.1503 13.9219C39.1691 16.6688 39.5441 18.5438 40.6691 21.4219C41.8691 24.5063 42.0378 25.3313 42.0472 28.125C42.0472 29.9344 42.0285 30.225 41.8316 30.9375C41.3722 32.6438 40.266 34.3594 38.8222 35.5969C37.2378 36.9656 35.3253 38.0625 31.3128 39.8906C27.3847 41.6906 25.8003 42.5625 24.5722 43.6219C24.291 43.8656 24.0285 44.0625 24.0003 44.0625C23.9722 44.0625 23.7097 43.8656 23.4285 43.6219C22.2097 42.5719 20.5972 41.6813 16.6878 39.8906C12.5816 38.0063 10.7722 36.975 9.17846 35.5969C7.73471 34.3594 6.62846 32.6438 6.16908 30.9375C5.97221 30.225 5.95346 29.9344 5.95346 28.125C5.96283 25.3406 6.13158 24.5063 7.32221 21.45C8.45658 18.5344 8.82221 16.7437 8.84096 14.0156C8.85971 12.6094 8.83158 12.3375 8.64408 11.6719C8.34408 10.6406 7.72533 9.36562 7.02221 8.34375L6.44096 7.48125L8.48471 5.4375C9.65658 4.26562 10.5753 3.4125 10.6316 3.45C10.6878 3.4875 10.9878 3.68437 11.2878 3.88125Z" fill="white"/>
<path d="M23.4378 10.6031C23.316 10.65 23.1285 10.7719 23.0347 10.8563C22.9316 10.9406 22.2003 12.3188 21.4035 13.9219C20.6066 15.5156 19.9316 16.8469 19.9128 16.8656C19.8941 16.8844 18.4691 17.1094 16.7535 17.3625C15.0472 17.6063 13.5285 17.8594 13.3972 17.9156C12.9378 18.1031 12.6378 18.5156 12.5816 19.0219C12.5628 19.275 12.5722 19.6031 12.6003 19.7531C12.6472 19.9219 13.5003 20.8219 15.0472 22.3594L17.4285 24.7031L16.8753 27.8906C16.2566 31.4156 16.2566 31.5188 16.791 32.0531C17.4847 32.7563 17.8691 32.6531 21.216 30.8906L24.0003 29.4188L26.7941 30.8906C30.1222 32.6531 30.5066 32.7563 31.2097 32.0531C31.7441 31.5188 31.7441 31.4156 31.1347 27.8625L30.591 24.6469L32.9628 22.3313C34.5378 20.7938 35.3535 19.9313 35.391 19.7531C35.4285 19.6125 35.4378 19.275 35.4191 19.0219C35.3628 18.5156 35.0628 18.1031 34.6035 17.9156C34.4722 17.8594 32.9441 17.6063 31.2191 17.3531C29.4941 17.1 28.0691 16.8563 28.0503 16.8188C28.0316 16.7719 27.3566 15.4313 26.5503 13.8281C25.5472 11.8406 25.0035 10.875 24.8253 10.7438C24.5347 10.5375 23.7753 10.4531 23.4378 10.6031ZM25.0316 17.3156C25.6503 18.5344 26.1097 19.3219 26.2503 19.4344C26.4191 19.5563 27.0378 19.6875 28.3597 19.875C29.391 20.025 30.3847 20.175 30.5628 20.2125L30.8816 20.2688L29.2785 21.825C27.8722 23.1938 27.6566 23.4375 27.6003 23.7563C27.5535 24.0188 27.6472 24.75 27.891 26.175C28.0785 27.3094 28.2285 28.2469 28.2003 28.2656C28.1816 28.2844 27.366 27.8719 26.391 27.3469C24.6566 26.4188 24.591 26.4 24.0003 26.4C23.4097 26.4 23.3347 26.4281 21.6097 27.3563C20.6347 27.8719 19.8191 28.2844 19.8003 28.2656C19.7722 28.2469 19.9222 27.3094 20.1097 26.175C20.3535 24.75 20.4472 24.0094 20.4003 23.7563C20.3441 23.4375 20.1285 23.1938 18.7222 21.825C17.8316 20.9625 17.1285 20.25 17.1566 20.25C17.1847 20.25 18.1691 20.1 19.3503 19.9313C20.916 19.6969 21.5628 19.5656 21.741 19.4344C21.9003 19.3219 22.341 18.5531 22.9691 17.3156C23.5128 16.2469 23.9722 15.375 24.0003 15.375C24.0285 15.375 24.4878 16.2469 25.0316 17.3156Z" fill="white"/>
</g>
<defs>
<clipPath id="clip0_3707_6">
<rect width="48" height="48" fill="white"/>
</clipPath>
</defs>
</svg>
