<svg width="184" height="58" viewBox="0 0 184 58" fill="none" xmlns="http://www.w3.org/2000/svg">
<path d="M67.6006 49.8542V43H68.4044V46.0333H72.5509V43H73.3547V49.8542H72.5509V46.7236H68.4044V49.8542H67.6006Z" fill="#251065"/>
<path d="M74.9794 49.8542L78.028 43H78.7141L81.7627 49.8542H80.9295L80.1649 48.1042H76.5674L75.8126 49.8542H74.9794ZM78.3612 43.9333L76.8615 47.4333H79.8806L78.3808 43.9333H78.3612Z" fill="#251065"/>
<path d="M83.3754 49.8542V43H86.1103C86.8553 43 87.4238 43.1782 87.8159 43.5347C88.2146 43.8912 88.4139 44.4 88.4139 45.0611C88.4139 45.7157 88.2146 46.2245 87.8159 46.5875C87.4238 46.944 86.8553 47.1222 86.1103 47.1222H84.1792V49.8542H83.3754ZM84.1792 46.4514H86.0123C87.084 46.4514 87.6199 45.988 87.6199 45.0611C87.6199 44.1278 87.084 43.6611 86.0123 43.6611H84.1792V46.4514Z" fill="#251065"/>
<path d="M91.2548 49.8542L92.3233 47.8028L89.3041 43H90.1765L92.7154 47.0542L94.8131 43H95.6463L92.1076 49.8542H91.2548Z" fill="#251065"/>
<path d="M96.3088 49.8542L97.4655 47.4722C97.7987 46.7852 98.2497 46.3509 98.8182 46.1694L96.6813 43H97.5831L99.6122 46.0528H100.553V43H101.337V46.0528H102.288L104.317 43H105.219L103.082 46.1694C103.363 46.2667 103.615 46.4255 103.837 46.6458C104.059 46.8597 104.252 47.1352 104.415 47.4722L105.592 49.8542H104.719L103.749 47.8417C103.559 47.4463 103.34 47.1644 103.092 46.9958C102.85 46.8273 102.55 46.7431 102.19 46.7431H101.337V49.8542H100.553V46.7431H99.7102C99.3443 46.7431 99.0371 46.8306 98.7888 47.0056C98.5405 47.1741 98.3215 47.4528 98.132 47.8417L97.1812 49.8542H96.3088Z" fill="#251065"/>
<path d="M107.129 49.8542V43H107.932V46.0333H112.079V43H112.883V49.8542H112.079V46.7236H107.932V49.8542H107.129Z" fill="#251065"/>
<path d="M114.507 49.8542L117.556 43H118.242L121.291 49.8542H120.457L119.693 48.1042H116.095L115.341 49.8542H114.507ZM117.889 43.9333L116.389 47.4333H119.409L117.909 43.9333H117.889Z" fill="#251065"/>
<path d="M122.423 49.8542L123.648 47.6181C123.857 47.2356 124.106 46.9894 124.393 46.8792C123.864 46.7819 123.452 46.5713 123.158 46.2472C122.871 45.9231 122.727 45.5019 122.727 44.9833C122.727 44.3481 122.923 43.8588 123.315 43.5153C123.714 43.1718 124.285 43 125.03 43H127.765V49.8542H126.962V46.9569H125.805C125.485 46.9569 125.227 47.0056 125.03 47.1028C124.841 47.2 124.671 47.3847 124.521 47.6569L123.315 49.8542H122.423ZM125.148 46.325H126.962V43.6611H125.148C124.063 43.6611 123.521 44.1019 123.521 44.9833C123.521 45.8778 124.063 46.325 125.148 46.325Z" fill="#251065"/>
<path d="M133.164 49.8542V43H135.899C136.644 43 137.213 43.1782 137.605 43.5347C138.003 43.8912 138.203 44.4 138.203 45.0611C138.203 45.7157 138.003 46.2245 137.605 46.5875C137.213 46.944 136.644 47.1222 135.899 47.1222H133.968V49.8542H133.164ZM133.968 46.4514H135.801C136.873 46.4514 137.409 45.988 137.409 45.0611C137.409 44.1278 136.873 43.6611 135.801 43.6611H133.968V46.4514Z" fill="#251065"/>
<path d="M139.956 49.8542V43H144.318V43.6708H140.74V46.0431H144.112V46.7139H140.74V49.1833H144.318V49.8542H139.956Z" fill="#251065"/>
<path d="M146.259 49.8542V43H147.062V46.0528H148.278L150.307 43H151.219L149.072 46.1694C149.359 46.2667 149.611 46.4255 149.827 46.6458C150.049 46.8597 150.245 47.1352 150.415 47.4722L151.581 49.8542H150.699L149.748 47.8417C149.559 47.4463 149.34 47.1644 149.092 46.9958C148.843 46.8273 148.539 46.7431 148.18 46.7431H147.062V49.8542H146.259Z" fill="#251065"/>
<path d="M152.823 50L152.44 49.3681C152.702 49.2319 152.934 49.0667 153.136 48.8722C153.339 48.6778 153.512 48.4218 153.656 48.1042C153.8 47.7866 153.911 47.3847 153.989 46.8986C154.068 46.406 154.107 45.7935 154.107 45.0611V43H158.685V49.8542H157.871V43.6903H154.852V45.2653C154.852 46.2181 154.773 47.0056 154.617 47.6278C154.46 48.2435 154.228 48.7394 153.921 49.1153C153.62 49.4912 153.254 49.7861 152.823 50Z" fill="#251065"/>
<path d="M160.314 49.8542L163.362 43H164.049L167.097 49.8542H166.264L165.499 48.1042H161.902L161.147 49.8542H160.314ZM163.696 43.9333L162.196 47.4333H165.215L163.715 43.9333H163.696Z" fill="#251065"/>
<path d="M168.729 49.8542V43H169.406L172.062 47.9486L174.699 43H175.376V49.8542H174.631V44.4972L172.327 48.7944H171.798L169.465 44.5069V49.8542H168.729Z" fill="#251065"/>
<path d="M177.017 49.8542L180.066 43H180.752L183.801 49.8542H182.967L182.203 48.1042H178.605L177.85 49.8542H177.017ZM180.399 43.9333L178.899 47.4333H181.918L180.419 43.9333H180.399Z" fill="#251065"/>
<path d="M79.9917 35.5763L67.6006 8.42366H74.0893L82.6106 27.912L91.132 8.42366H97.3471L84.956 35.5763H79.9917Z" fill="#98007D"/>
<path d="M99.4408 35.5763V8.42366H105.5V35.5763H99.4408Z" fill="#98007D"/>
<path d="M119.958 35.5763L107.567 8.42366H114.056L122.577 27.912L131.099 8.42366H137.314L124.923 35.5763H119.958Z" fill="#98007D"/>
<path d="M139.407 35.5763V8.42366H158.287V13.0839H145.193V19.4388H157.427V24.1376H145.193V30.9161H158.287V35.5763H139.407Z" fill="#98007D"/>
<path d="M172.543 36C170.38 36 168.334 35.7304 166.406 35.1912C164.504 34.652 162.914 33.9202 161.637 32.9959L163.396 28.2971C164.621 29.1444 166.015 29.812 167.579 30.2999C169.168 30.7877 170.823 31.0316 172.543 31.0316C174.419 31.0316 175.761 30.7492 176.569 30.1843C177.403 29.5938 177.82 28.862 177.82 27.989C177.82 27.2444 177.533 26.6538 176.96 26.2173C176.387 25.7808 175.383 25.4085 173.95 25.1004L169.533 24.1761C164.608 23.149 162.145 20.6327 162.145 16.6272C162.145 14.9069 162.615 13.4049 163.553 12.121C164.491 10.8116 165.794 9.79734 167.462 9.0784C169.155 8.35947 171.11 8 173.325 8C175.227 8 177.012 8.2696 178.68 8.8088C180.348 9.348 181.729 10.1055 182.823 11.0812L181.064 15.4718C178.928 13.8028 176.335 12.9684 173.286 12.9684C171.644 12.9684 170.367 13.2893 169.455 13.9312C168.569 14.5475 168.126 15.3563 168.126 16.3576C168.126 17.1022 168.4 17.7056 168.947 18.1678C169.494 18.63 170.445 19.0023 171.8 19.2847L176.217 20.2091C181.273 21.2875 183.801 23.7267 183.801 27.5268C183.801 29.2215 183.332 30.7107 182.393 31.9945C181.481 33.2526 180.178 34.2412 178.485 34.9601C176.817 35.6534 174.836 36 172.543 36Z" fill="#98007D"/>
<path d="M26.2043 41.1322V56.9972H26.1986V56.9944L13.6007 49.9975L1.00288 42.9951H1V15.002H1.00288V15.0047L13.6007 22.0016L15.2774 22.9303V35.0667L26.1986 41.135L26.2043 41.1322Z" stroke="#251065" stroke-width="2" stroke-linecap="round" stroke-linejoin="round"/>
<path d="M1.00293 15.002L13.6008 22.0016L1.00293 15.0047V15.002Z" stroke="#251065" stroke-width="2" stroke-linecap="round" stroke-linejoin="round"/>
<path d="M51.3973 15.002V15.0047L45.6299 18.2066L51.3973 15.002Z" stroke="#251065" stroke-width="2" stroke-linecap="round" stroke-linejoin="round"/>
<path d="M26.2041 56.9944L51.3969 42.9951L26.2041 56.9972V56.9944Z" stroke="#251065" stroke-width="2" stroke-linecap="round" stroke-linejoin="round"/>
<path d="M51.4002 15.002H51.3975V42.9978H51.4002V15.002Z" stroke="#251065" stroke-width="2" stroke-linecap="round" stroke-linejoin="round"/>
<path d="M15.2774 35.0668V22.9304L13.6037 22.0017L1.00293 14.9993V42.9979L13.6037 49.9976L26.2015 57V41.1295L15.2774 35.0668Z" fill="#E0007A"/>
<path d="M45.6298 18.2066L51.3914 15.002M15.2774 35.0668V22.9304L13.6037 22.0017L1.00293 14.9993V42.9979L13.6037 49.9976L26.2015 57V41.1295L15.2774 35.0668Z" stroke="#251065" stroke-width="2" stroke-linecap="round" stroke-linejoin="round"/>
<path d="M51.3969 15.0049V42.9952L26.2041 56.9946V41.1323L37.1224 35.0669V22.9304L45.6295 18.2067L51.3969 15.0049Z" stroke="#251065" stroke-width="2" stroke-linecap="round" stroke-linejoin="round"/>
<path d="M51.3972 15.0021L45.6298 18.2067L37.1227 22.9304L26.1986 16.8622L15.2774 22.9304L13.6008 22.0018L1.00293 15.0021L26.1986 1L51.3972 15.0021Z" stroke="#251065" stroke-width="2" stroke-linecap="round" stroke-linejoin="round"/>
<path d="M26.1982 56.9975V56.9947V41.1353" stroke="#251065" stroke-width="2" stroke-linecap="round" stroke-linejoin="round"/>
<path d="M26.1985 16.8623V28.9988L15.2773 35.067V22.9305L26.1985 16.8623Z" stroke="#251065" stroke-width="2" stroke-linecap="round" stroke-linejoin="round"/>
<path d="M37.1223 22.9305V35.067L26.204 29.0015V28.9988H26.1982V16.8623L37.1223 22.9305Z" fill="#E0007A" stroke="#251065" stroke-width="2" stroke-linecap="round" stroke-linejoin="round"/>
<path d="M37.1226 35.0668L26.2043 41.1322L26.1985 41.135L15.2773 35.0668L26.1985 28.9985H26.2043V29.0013L37.1226 35.0668Z" stroke="#251065" stroke-width="2" stroke-linecap="round" stroke-linejoin="round"/>
</svg>
