<svg width="135" height="42" viewBox="0 0 135 42" fill="none" xmlns="http://www.w3.org/2000/svg">
<path d="M53.3076 35.346V30.5273H53.8727V32.6599H56.7878V30.5273H57.3529V35.346H56.7878V33.1451H53.8727V35.346H53.3076Z" fill="white"/>
<path d="M58.4952 35.346L60.6384 30.5273H61.1208L63.2641 35.346H62.6783L62.1408 34.1157H59.6116L59.0809 35.346H58.4952ZM60.8727 31.1835L59.8183 33.6441H61.9409L60.8865 31.1835H60.8727Z" fill="white"/>
<path d="M64.3979 35.346V30.5273H66.3206C66.8444 30.5273 67.2441 30.6526 67.5197 30.9032C67.8 31.1539 67.9401 31.5116 67.9401 31.9763C67.9401 32.4366 67.8 32.7943 67.5197 33.0495C67.2441 33.3001 66.8444 33.4254 66.3206 33.4254H64.963V35.346H64.3979ZM64.963 32.9538H66.2517C67.0052 32.9538 67.3819 32.628 67.3819 31.9763C67.3819 31.3202 67.0052 30.9921 66.2517 30.9921H64.963V32.9538Z" fill="white"/>
<path d="M69.9374 35.346L70.6885 33.9038L68.5659 30.5273H69.1793L70.9642 33.3775L72.439 30.5273H73.0248L70.5369 35.346H69.9374Z" fill="white"/>
<path d="M73.4905 35.346L74.3037 33.6714C74.538 33.1884 74.855 32.8831 75.2547 32.7555L73.7524 30.5273H74.3864L75.8129 32.6735H76.4745V30.5273H77.0258V32.6735H77.6943L79.1209 30.5273H79.7549L78.2525 32.7555C78.4501 32.8239 78.627 32.9355 78.7832 33.0905C78.9394 33.2408 79.0749 33.4345 79.1898 33.6714L80.0168 35.346H79.4034L78.7212 33.9312C78.5879 33.6532 78.434 33.455 78.2594 33.3365C78.0894 33.2181 77.8781 33.1588 77.6254 33.1588H77.0258V35.346H76.4745V33.1588H75.8818C75.6246 33.1588 75.4086 33.2203 75.234 33.3434C75.0595 33.4618 74.9055 33.6578 74.7723 33.9312L74.1038 35.346H73.4905Z" fill="white"/>
<path d="M81.0972 35.346V30.5273H81.6623V32.6599H84.5774V30.5273H85.1425V35.346H84.5774V33.1451H81.6623V35.346H81.0972Z" fill="white"/>
<path d="M86.2847 35.346L88.428 30.5273H88.9104L91.0537 35.346H90.4679L89.9303 34.1157H87.4011L86.8705 35.346H86.2847ZM88.6623 31.1835L87.6079 33.6441H89.7305L88.6761 31.1835H88.6623Z" fill="white"/>
<path d="M91.8497 35.346L92.7112 33.774C92.8582 33.5051 93.0328 33.332 93.2349 33.2545C92.8628 33.1862 92.5733 33.0381 92.3666 32.8102C92.1644 32.5824 92.0634 32.2862 92.0634 31.9217C92.0634 31.4751 92.2012 31.1311 92.4769 30.8896C92.7571 30.6481 93.1591 30.5273 93.6829 30.5273H95.6056V35.346H95.0405V33.3092H94.2273C94.0022 33.3092 93.8207 33.3434 93.6829 33.4117C93.5496 33.4801 93.4302 33.6099 93.3245 33.8013L92.4769 35.346H91.8497ZM93.7656 32.8649H95.0405V30.9921H93.7656C93.0029 30.9921 92.6216 31.302 92.6216 31.9217C92.6216 32.5505 93.0029 32.8649 93.7656 32.8649Z" fill="white"/>
<path d="M99.4012 35.346V30.5273H101.324C101.848 30.5273 102.247 30.6526 102.523 30.9032C102.803 31.1539 102.943 31.5116 102.943 31.9763C102.943 32.4366 102.803 32.7943 102.523 33.0495C102.247 33.3001 101.848 33.4254 101.324 33.4254H99.9663V35.346H99.4012ZM99.9663 32.9538H101.255C102.008 32.9538 102.385 32.628 102.385 31.9763C102.385 31.3202 102.008 30.9921 101.255 30.9921H99.9663V32.9538Z" fill="white"/>
<path d="M104.176 35.346V30.5273H107.242V30.9989H104.727V32.6667H107.098V33.1383H104.727V34.8744H107.242V35.346H104.176Z" fill="white"/>
<path d="M108.607 35.346V30.5273H109.172V32.6735H110.027L111.453 30.5273H112.094L110.585 32.7555C110.787 32.8239 110.964 32.9355 111.116 33.0905C111.272 33.2408 111.41 33.4345 111.529 33.6714L112.349 35.346H111.729L111.06 33.9312C110.927 33.6532 110.773 33.455 110.599 33.3365C110.424 33.2181 110.21 33.1588 109.958 33.1588H109.172V35.346H108.607Z" fill="white"/>
<path d="M113.222 35.4486L112.953 35.0043C113.137 34.9086 113.3 34.7924 113.442 34.6557C113.585 34.519 113.706 34.339 113.808 34.1157C113.909 33.8924 113.987 33.6099 114.042 33.2682C114.097 32.9219 114.125 32.4913 114.125 31.9763V30.5273H117.343V35.346H116.771V31.0126H114.648V32.1199C114.648 32.7897 114.593 33.3434 114.483 33.7808C114.373 34.2137 114.21 34.5623 113.994 34.8266C113.782 35.0909 113.525 35.2982 113.222 35.4486Z" fill="white"/>
<path d="M118.488 35.346L120.632 30.5273H121.114L123.257 35.346H122.672L122.134 34.1157H119.605L119.074 35.346H118.488ZM120.866 31.1835L119.812 33.6441H121.934L120.88 31.1835H120.866Z" fill="white"/>
<path d="M124.405 35.346V30.5273H124.88L126.748 34.0064L128.602 30.5273H129.077V35.346H128.554V31.5799L126.934 34.601H126.562L124.922 31.5867V35.346H124.405Z" fill="white"/>
<path d="M130.231 35.346L132.375 30.5273H132.857L135 35.346H134.415L133.877 34.1157H131.348L130.817 35.346H130.231ZM132.609 31.1835L131.555 33.6441H133.677L132.623 31.1835H132.609Z" fill="white"/>
<path d="M62.0192 25.3083L53.3078 6.21899H57.8696L63.8604 19.92L69.8512 6.21899H74.2207L65.5093 25.3083H62.0192Z" fill="white"/>
<path d="M75.6926 25.3083V6.21899H79.9521V25.3083H75.6926Z" fill="white"/>
<path d="M90.1172 25.3083L81.4058 6.21899H85.9676L91.9584 19.92L97.9492 6.21899H102.319L93.6073 25.3083H90.1172Z" fill="white"/>
<path d="M103.791 25.3083V6.21899H117.064V9.49531H107.858V13.963H116.459V17.2664H107.858V22.032H117.064V25.3083H103.791Z" fill="white"/>
<path d="M127.086 25.6061C125.566 25.6061 124.127 25.4166 122.772 25.0375C121.434 24.6584 120.317 24.144 119.419 23.4941L120.656 20.1907C121.517 20.7864 122.497 21.2558 123.596 21.5987C124.714 21.9417 125.877 22.1132 127.086 22.1132C128.405 22.1132 129.349 21.9146 129.917 21.5175C130.503 21.1023 130.796 20.5879 130.796 19.9741C130.796 19.4506 130.594 19.0354 130.191 18.7286C129.788 18.4217 129.083 18.16 128.075 17.9433L124.97 17.2935C121.508 16.5714 119.776 14.8024 119.776 11.9864C119.776 10.777 120.106 9.72095 120.766 8.81838C121.425 7.89777 122.341 7.18474 123.514 6.6793C124.704 6.17386 126.078 5.92114 127.636 5.92114C128.973 5.92114 130.228 6.11068 131.401 6.48976C132.573 6.86884 133.544 7.40135 134.314 8.0873L133.077 11.1741C131.575 10.0007 129.752 9.41408 127.608 9.41408C126.454 9.41408 125.556 9.63972 124.915 10.091C124.292 10.5242 123.981 11.0929 123.981 11.7969C123.981 12.3203 124.173 12.7446 124.558 13.0695C124.943 13.3944 125.611 13.6561 126.564 13.8547L129.669 14.5046C133.223 15.2627 135.001 16.9776 135.001 19.6492C135.001 20.8406 134.671 21.8876 134.011 22.7901C133.37 23.6746 132.454 24.3696 131.263 24.8751C130.091 25.3624 128.698 25.6061 127.086 25.6061Z" fill="white"/>
<path d="M18.7195 29.2145V40.3681H18.7155V40.3662L9.85876 35.4471L1.00203 30.5242H1V10.844H1.00203V10.8459L9.85876 15.765L11.0375 16.4179V24.9502L18.7155 29.2164L18.7195 29.2145Z" stroke="white" stroke-width="2" stroke-linecap="round" stroke-linejoin="round"/>
<path d="M1.00195 10.844L9.85868 15.765L1.00195 10.8459V10.844Z" stroke="white" stroke-width="2" stroke-linecap="round" stroke-linejoin="round"/>
<path d="M36.4307 10.844V10.8459L32.376 13.0969L36.4307 10.844Z" stroke="white" stroke-width="2" stroke-linecap="round" stroke-linejoin="round"/>
<path d="M18.7197 40.3662L36.4312 30.5242L18.7197 40.3681V40.3662Z" stroke="white" stroke-width="2" stroke-linecap="round" stroke-linejoin="round"/>
<path d="M36.4336 10.844H36.4316V30.5261H36.4336V10.844Z" stroke="white" stroke-width="2" stroke-linecap="round" stroke-linejoin="round"/>
<path d="M11.0374 24.9502V16.4179L9.86071 15.765L1.00195 10.842V30.5261L9.86071 35.4471L18.7174 40.3701V29.2125L11.0374 24.9502Z" fill="#E0007A"/>
<path d="M32.3762 13.0969L36.4268 10.844M11.0374 24.9502V16.4179L9.86071 15.765L1.00195 10.842V30.5261L9.86071 35.4471L18.7174 40.3701V29.2125L11.0374 24.9502Z" stroke="white" stroke-width="2" stroke-linecap="round" stroke-linejoin="round"/>
<path d="M36.4312 10.8459V30.5242L18.7197 40.3662V29.2145L26.3957 24.9503V16.4179L32.3765 13.0969L36.4312 10.8459Z" stroke="white" stroke-width="2" stroke-linecap="round" stroke-linejoin="round"/>
<path d="M36.4309 10.844L32.3762 13.0969L26.3954 16.4179L18.7154 12.1517L11.0374 16.4179L9.85868 15.765L1.00195 10.844L18.7154 1L36.4309 10.844Z" stroke="white" stroke-width="2" stroke-linecap="round" stroke-linejoin="round"/>
<path d="M18.7148 40.3682V40.3663V29.2166" stroke="white" stroke-width="2" stroke-linecap="round" stroke-linejoin="round"/>
<path d="M18.7151 12.1519V20.6842L11.0371 24.9504V16.418L18.7151 12.1519Z" stroke="white" stroke-width="2" stroke-linecap="round" stroke-linejoin="round"/>
<path d="M26.3949 16.418V24.9504L18.7189 20.6862V20.6842H18.7148V12.1519L26.3949 16.418Z" fill="#E0007A" stroke="white" stroke-width="2" stroke-linecap="round" stroke-linejoin="round"/>
<path d="M26.3951 24.9503L18.7192 29.2145L18.7151 29.2164L11.0371 24.9503L18.7151 20.6841H18.7192V20.686L26.3951 24.9503Z" stroke="white" stroke-width="2" stroke-linecap="round" stroke-linejoin="round"/>
</svg>
