<svg xmlns="http://www.w3.org/2000/svg" fill="none" viewBox="0 0 122 80"><path fill="#FF4A00" d="m20 51.12 8.385-13.023h-7.392a7.559 7.559 0 0 1-.09-1.242c0-.438.028-.84.09-1.206h11.964l.152.402-8.447 13.05h7.92c.062.412.089.84.089 1.27 0 .41-.027.803-.09 1.178H20.152L20 51.121ZM44.196 41.071c0-1.223-.313-2.063-.93-2.545-.618-.474-1.522-.715-2.703-.715-.725 0-1.405.053-2.031.17-.635.116-1.244.259-1.852.446-.394-.679-.59-1.5-.59-2.447a14.88 14.88 0 0 1 2.326-.527c.85-.125 1.664-.188 2.452-.188 2.066 0 3.641.474 4.724 1.411 1.074.938 1.62 2.448 1.62 4.511v9.952c-.725.16-1.602.34-2.64.509a18.634 18.634 0 0 1-3.168.259c-1.01 0-1.932-.09-2.747-.277-.814-.188-1.512-.482-2.085-.902a4.138 4.138 0 0 1-1.324-1.581c-.313-.643-.465-1.42-.465-2.323 0-.884.179-1.67.545-2.34.358-.67.85-1.233 1.477-1.67a6.407 6.407 0 0 1 2.148-.992 9.874 9.874 0 0 1 2.55-.33c.662 0 1.208.017 1.628.044.421.027.779.071 1.074.107v-.572h-.009Zm0 3.01c-.313-.044-.707-.08-1.18-.124a13.003 13.003 0 0 0-1.209-.063c-1.288 0-2.264.241-2.935.715-.671.473-1.011 1.197-1.011 2.17 0 .617.116 1.108.34 1.456.224.349.51.617.85.804.34.188.716.304 1.136.34.412.044.806.062 1.182.062.474 0 .966-.026 1.476-.08.51-.054.958-.125 1.351-.232v-5.047ZM50.567 35.65a4.96 4.96 0 0 1 .636-.09 8.13 8.13 0 0 1 1.324 0c.224.018.447.054.653.09.018.044.045.17.08.384.028.214.063.446.09.697.027.25.063.482.09.714.027.232.044.375.044.438.206-.33.457-.652.743-.965.287-.313.636-.59 1.038-.84.403-.25.86-.446 1.37-.59a6.255 6.255 0 0 1 1.69-.213c.931 0 1.8.151 2.595.464a5.217 5.217 0 0 1 2.05 1.438c.572.652 1.01 1.483 1.333 2.483.322 1.001.483 2.189.483 3.556 0 2.733-.743 4.868-2.219 6.405-1.485 1.536-3.58 2.313-6.29 2.313-.457 0-.922-.027-1.397-.09a7.81 7.81 0 0 1-1.243-.25v7.29a7.01 7.01 0 0 1-.797.09c-.277.017-.537.026-.76.026-.224 0-.484-.009-.761-.027a8.15 8.15 0 0 1-.76-.09V35.65h.008Zm3.079 13.3c.393.143.796.25 1.208.313.411.063.948.09 1.62.09.742 0 1.431-.117 2.048-.358a4.216 4.216 0 0 0 1.602-1.098c.448-.5.796-1.126 1.056-1.876s.385-1.653.385-2.68c0-1.653-.304-2.966-.913-3.94-.608-.973-1.61-1.456-2.998-1.456-.519 0-1.01.09-1.494.277a3.625 3.625 0 0 0-1.27.84c-.376.375-.672.84-.904 1.411-.233.572-.34 1.242-.34 2.028v6.45ZM68.616 38.06h-2.022a3.33 3.33 0 0 1-.09-.57 7.674 7.674 0 0 1 0-1.27c.018-.214.054-.41.09-.571h5.038v15.91a5.92 5.92 0 0 1-.761.089c-.277.017-.537.026-.76.026-.206 0-.448-.008-.734-.026a8.116 8.116 0 0 1-.76-.09V38.061ZM78.244 44.359c.045 1.733.493 3.01 1.352 3.814.859.804 2.13 1.206 3.803 1.206 1.467 0 2.872-.259 4.196-.777.17.313.305.688.403 1.134a7.6 7.6 0 0 1 .188 1.323c-.68.285-1.432.509-2.255.652-.814.142-1.727.214-2.72.214-1.45 0-2.694-.206-3.732-.607-1.038-.402-1.888-.974-2.559-1.707a6.768 6.768 0 0 1-1.476-2.608c-.314-1-.466-2.1-.466-3.305 0-1.18.152-2.278.448-3.305a7.432 7.432 0 0 1 1.378-2.671 6.627 6.627 0 0 1 2.344-1.796c.94-.446 2.058-.67 3.338-.67 1.1 0 2.058.188 2.89.563a5.921 5.921 0 0 1 2.085 1.536c.555.653.984 1.43 1.27 2.323a9.62 9.62 0 0 1 .44 2.93c0 .286-.01.599-.037.911-.017.322-.044.599-.062.822H78.244v.018Zm7.893-2.296c0-.58-.08-1.134-.233-1.661a4.215 4.215 0 0 0-.68-1.376 3.391 3.391 0 0 0-1.145-.947c-.466-.241-1.02-.357-1.665-.357-1.261 0-2.228.384-2.908 1.143-.671.768-1.083 1.831-1.226 3.198h7.857ZM92.57 35.649c.224-.045.448-.072.654-.09a8.683 8.683 0 0 1 1.333 0c.224.018.439.054.618.09.062.313.125.715.188 1.224.062.509.09.938.09 1.286a6.449 6.449 0 0 1 1.726-1.831c.716-.518 1.629-.777 2.747-.777.17 0 .34.009.51.018.179.008.322.026.448.044.044.188.071.384.089.59.018.205.027.42.027.652 0 .25-.018.51-.045.777-.027.268-.071.527-.107.777a1.992 1.992 0 0 0-.51-.062h-.42c-.556 0-1.092.08-1.603.232-.51.152-.966.429-1.369.822-.402.393-.724.929-.966 1.617-.242.678-.358 1.563-.358 2.635v7.905a5.92 5.92 0 0 1-.76.09c-.278.017-.537.026-.761.026a10.297 10.297 0 0 1-1.557-.116V35.65h.027ZM74.558 26.288H71.55l2.13-2.126a6.593 6.593 0 0 0-.555-.661 4.355 4.355 0 0 0-.662-.554l-2.13 2.126V22.07a5.388 5.388 0 0 0-.859-.071h-.009c-.295 0-.581.027-.859.072v3l-2.13-2.125c-.232.17-.456.357-.662.554-.206.205-.385.42-.555.66l2.14 2.127h-3.008s-.071.563-.071.857c0 .295.027.58.071.858H67.4l-2.13 2.126c.331.464.743.875 1.217 1.215l2.13-2.126v3.001c.277.045.564.072.86.072h.008c.295 0 .582-.027.86-.072v-3.001l2.129 2.126c.232-.17.456-.358.662-.554a4.35 4.35 0 0 0 .555-.661l-2.13-2.126h3.007c.044-.277.071-.563.071-.858v-.009a5.34 5.34 0 0 0-.08-.848Zm-3.794.866c0 .384-.072.75-.197 1.09-.34.125-.707.197-1.092.197-.385 0-.752-.072-1.092-.197a3.139 3.139 0 0 1-.197-1.09v-.009c0-.384.072-.75.197-1.09a3.154 3.154 0 0 1 2.183 0c.126.34.198.706.198 1.1Z"/></svg>