<svg xmlns="http://www.w3.org/2000/svg" fill="none" viewBox="0 0 122 80"><path fill="#F36" d="M52.625 35.09h3.99l-5.67 14.359h-3.57L41.6 35.09h4.095l3.465 9.607 3.465-9.607Zm5.25 14.253h3.885V35.091h-3.885v14.252Zm5.67-4.645h3.885c.105.95.735 1.9 2.415 1.9 1.47 0 2.205-.528 2.205-1.267 0-2.428-7.875-.105-7.875-5.806 0-2.64 2.205-4.75 5.67-4.75 4.305 0 5.775 2.744 5.88 4.855H72.05c-.105-.95-.735-1.689-2.1-1.689-1.26 0-1.995.634-1.995 1.373 0 2.428 7.875 0 7.875 5.912 0 2.534-2.205 4.54-5.985 4.54-4.515-.106-6.09-2.323-6.3-5.068Zm14.175 4.645h3.885V35.091H77.72v14.252Zm13.02-3.062c1.995 0 3.57-1.477 3.57-4.117 0-2.534-1.575-4.117-3.57-4.117-1.995 0-3.57 1.478-3.57 4.117 0 2.64 1.575 4.117 3.57 4.117Zm-7.455-4.117c0-4.117 2.94-7.495 7.455-7.495 4.515 0 7.455 3.378 7.455 7.495s-2.94 7.496-7.455 7.496c-4.515 0-7.455-3.378-7.455-7.496Zm20.265-5.384c.63-1.267 2.1-2.111 4.2-2.111 3.465 0 5.25 2.322 5.25 5.7v8.974h-3.885v-8.551c0-1.69-.735-2.85-2.415-2.85-1.89 0-2.94 1.16-2.94 3.166v8.235h-3.885V35.091h3.675v1.69Z"/><path fill="#F36" d="M8 58h35.805V22H8v36Z"/><path fill="#fff" d="M20.6 33.296c1.155 0 2.1-.844 2.1-2.111a2.112 2.112 0 0 0-2.1-2.111c-1.155 0-2.1.844-2.1 2.111 0 1.267.945 2.111 2.1 2.111Zm-4.41 11.191c-.105.528-.21 1.056-.21 1.584 0 1.794.945 3.061 3.045 3.061 1.785 0 3.15-1.055 4.2-2.745l-.63 2.534h3.465l1.995-7.918c.525-2.006 1.47-3.061 2.94-3.061 1.155 0 1.89.739 1.89 1.9 0 .317 0 .739-.105 1.161l-1.05 3.695c-.105.528-.21 1.056-.21 1.584 0 1.689 1.05 2.956 3.15 2.956 1.785 0 3.255-1.161 4.095-4.012l-1.365-.528c-.63 1.9-1.26 2.217-1.68 2.217-.42 0-.735-.317-.735-.95 0-.317.105-.633.105-.95l.945-3.59c.21-.844.315-1.583.315-2.217 0-2.639-1.575-4.011-3.57-4.011-1.785 0-3.675 1.689-4.62 3.378l.63-3.062h-5.25l-.735 2.745h2.415l-1.47 5.807c-1.155 2.639-3.36 2.745-3.675 2.639-.42-.106-.735-.317-.735-.845 0-.316.105-.844.21-1.372l2.31-9.185h-5.775l-.735 2.745h2.415l-1.575 6.44Z"/></svg>