<svg xmlns="http://www.w3.org/2000/svg" fill="none" viewBox="0 0 122 80"><path fill="#0042E4" fill-rule="evenodd" d="m17.422 30.673 3.532 9.642 3.7-9.642h5.254L20.925 53h-5.196l2.657-6.918L12 30.673h5.422Zm55.487-.342c4.744 0 8.203 3.645 8.203 8.633 0 4.988-3.46 8.634-8.203 8.634-1.75 0-3.224-.46-4.349-1.344l-.073-.059-.062-.05v6.85h-5.063V30.673h4.476v1.669l.026-.029c1.103-1.245 2.771-1.934 4.833-1.979l.109-.002h.103Zm-33.78 0c5.223 0 8.926 3.574 8.926 8.633 0 5.038-3.715 8.634-8.926 8.634-5.24 0-8.961-3.59-8.961-8.634 0-5.064 3.707-8.633 8.96-8.633ZM56.489 27v3.673h4.164v4.33h-4.164v5.975c0 1.337.655 2.073 1.85 2.118l.117.001c.81 0 1.423-.21 1.972-.733l.052-.05.136-.138h.038v4.775l-.155.074c-.834.395-1.347.573-2.768.573-4.013 0-6.217-2.163-6.303-6.203l-.002-.123v-6.27h-1.833v-4.329h1.97V27h4.926Zm35.685 3.331c5.223 0 8.926 3.574 8.926 8.633 0 5.038-3.715 8.634-8.926 8.634-5.24 0-8.961-3.59-8.961-8.634 0-5.064 3.708-8.633 8.96-8.633Zm13.052 11.774c1.532 0 2.774 1.23 2.774 2.746 0 1.517-1.242 2.747-2.774 2.747s-2.773-1.23-2.773-2.747 1.242-2.746 2.773-2.746Zm-33.075-7.273c-2.28 0-3.83 1.671-3.83 4.132 0 2.462 1.55 4.133 3.83 4.133 2.31 0 3.864-1.666 3.864-4.133 0-2.466-1.554-4.132-3.864-4.132Zm-33.023 0c-2.288 0-3.864 1.68-3.864 4.132 0 2.454 1.576 4.133 3.865 4.133 2.259 0 3.83-1.684 3.83-4.133 0-2.447-1.572-4.132-3.831-4.132Zm53.046 0c-2.288 0-3.865 1.68-3.865 4.132 0 2.454 1.577 4.133 3.865 4.133 2.259 0 3.83-1.684 3.83-4.133 0-2.447-1.571-4.132-3.83-4.132Z" clip-rule="evenodd"/></svg>