<svg xmlns="http://www.w3.org/2000/svg" fill="none" viewBox="0 0 122 80"><path fill="#050038" fill-rule="evenodd" d="M52.428 33.881c1.988-.382 3.976-.784 5.944-1.166-.02 8.912-.02 17.805 0 26.698-1.968-.402-3.956-.825-5.925-1.207-.06-.785-.02-1.57-.02-2.354-.02-7.303-.02-14.627 0-21.97Zm48.092 3.944c-1.67.04-3.38.563-4.672 1.65-1.073.885-1.849 2.092-2.286 3.42-.477 1.428-.577 2.978-.398 4.487.2 1.73.875 3.44 2.068 4.708.934 1.006 2.207 1.71 3.539 2.012 1.67.382 3.479.322 5.05-.423 1.153-.523 2.107-1.449 2.783-2.535.756-1.227 1.133-2.656 1.253-4.104.139-1.63-.04-3.3-.637-4.83-.516-1.367-1.451-2.595-2.703-3.38-1.193-.744-2.605-1.066-3.997-1.005Zm-.874-5.614c2.882-.2 5.904.343 8.39 1.892a12.007 12.007 0 0 1 3.519 3.36c.815 1.207 1.411 2.555 1.829 3.963.437 1.51.596 3.099.616 4.668 0 2.877-.656 5.815-2.227 8.25a11.842 11.842 0 0 1-5.845 4.747c-1.551.584-3.181.865-4.831.906-3.101.06-6.302-.705-8.827-2.556-2.147-1.549-3.718-3.822-4.513-6.357-.557-1.69-.776-3.501-.756-5.292.02-3.118.915-6.297 2.843-8.752 1.57-2.032 3.817-3.48 6.263-4.205a13.892 13.892 0 0 1 3.539-.623ZM14.414 33.4c1.432-.846 3.082-1.248 4.732-1.228 2.624.1 5.15 1.469 6.68 3.642.776-1.067 1.85-1.891 3.002-2.475 2.605-1.267 5.766-1.469 8.45-.362a8.525 8.525 0 0 1 3.26 2.374c.895 1.066 1.492 2.354 1.85 3.682.377 1.388.477 2.837.437 4.265v16.136c-1.969-.402-3.957-.825-5.945-1.207-.02-5.15 0-10.301-.02-15.452.02-1.187-.397-2.394-1.232-3.219-.895-.925-2.207-1.368-3.48-1.348-1.133-.02-2.286.322-3.18 1.046-1.015.805-1.551 2.133-1.551 3.44v16.74c-1.988-.402-3.977-.825-5.965-1.207-.02-1.65 0-3.32-.02-4.99V42.835c.04-1.187-.357-2.415-1.192-3.26-.736-.764-1.75-1.207-2.764-1.328-.974-.1-1.968-.02-2.883.362a4.29 4.29 0 0 0-2.207 2.113 4.88 4.88 0 0 0-.437 2.052v13.038c.02 1.207-.02 2.414.02 3.621-1.988-.382-3.956-.825-5.925-1.187-.04-.704.02-1.428-.04-2.112.02-.805.02-1.61 0-2.415.06-.744 0-1.509.02-2.253v-6.398c-.02-1.328.02-2.676-.02-4.004.02-.744.02-1.509 0-2.253.04-1.49.02-2.958.02-4.447.02-.14-.099-.362.06-.442 1.968-.383 3.917-.765 5.885-1.147-.02.905 0 1.81 0 2.716.696-.845 1.51-1.57 2.445-2.093Zm64.853-.825c.955-.161 1.929-.322 2.883-.483v6.277c-.954.181-1.909.362-2.863.523-1.431.242-2.922.664-3.996 1.71-.875.825-1.292 2.032-1.372 3.22-.06.845-.02 1.69-.02 2.555v13.037c-1.65-.342-3.3-.684-4.97-1.006-.318-.06-.616-.14-.954-.18-.08-.464-.02-.926-.04-1.39V42.976c.04-1.448.278-2.917.875-4.265.576-1.348 1.59-2.495 2.783-3.34 1.59-1.106 3.44-1.77 5.308-2.273.796-.181 1.551-.403 2.366-.523ZM54.813 21.045c.954-.12 1.988-.02 2.803.563.935.624 1.452 1.75 1.472 2.857.06.322-.02.664-.02.986-.1 1.006-.616 1.972-1.471 2.535-.895.604-2.048.704-3.102.483a3.47 3.47 0 0 1-2.187-1.529c-.576-.925-.676-2.092-.457-3.159.199-1.006.875-1.931 1.79-2.374a4.165 4.165 0 0 1 1.172-.362Z" clip-rule="evenodd"/></svg>