<svg xmlns="http://www.w3.org/2000/svg" fill="none" viewBox="0 0 122 80"><path fill="#000" d="M49.205 29.393v17.126l2.227.017v-8.16h5.372v-2.153h-5.372v-4.677h6.987v-2.153h-9.214Zm13.226 3.482c.799 0 1.462-.639 1.462-1.446 0-.808-.646-1.447-1.462-1.447-.799 0-1.462.64-1.462 1.447s.646 1.446 1.462 1.446Zm-1.139 2.154v11.507h2.227V35.029h-2.227Zm10.489-.337c-2.958 0-5.015 2.473-5.015 5.417s2.057 5.418 5.015 5.418c1.36 0 2.465-.505 3.281-1.363v1.53a3.475 3.475 0 0 1-3.451 3.5h-.034c-.714 0-1.411-.27-1.972-.656l-1.122 1.918c2.652 1.699 6.188.942 7.888-1.683a5.68 5.68 0 0 0 .918-3.078v-10.65h-2.227v1.027c-.816-.858-1.921-1.38-3.281-1.38Zm-2.788 5.417c0-1.833 1.411-3.263 3.043-3.263 1.632 0 3.026 1.447 3.026 3.263 0 1.834-1.411 3.247-3.026 3.247-1.632 0-3.043-1.43-3.043-3.247Zm16.32-3.263c-1.326.017-2.397 1.093-2.38 2.406v7.267h-2.227V35.012h2.227v1.06a3.518 3.518 0 0 1 2.873-1.38c1.564 0 2.771.757 3.451 1.935a4.283 4.283 0 0 1 3.536-1.935c2.533 0 4.114 2.02 4.114 4.526v7.301h-2.21v-7.267a2.407 2.407 0 0 0-2.38-2.406c-1.326.017-2.397 1.093-2.38 2.406v7.267h-2.244v-7.267a2.407 2.407 0 0 0-2.38-2.406Zm23.46-.522a5.37 5.37 0 0 0-3.927-1.632c-3.315 0-5.661 2.776-5.661 6.074 0 3.314 2.346 6.073 5.661 6.073 1.479 0 2.89-.589 3.927-1.632v1.312H111V35.012h-2.227v1.312Zm-7.361 4.442c0-2.188 1.7-3.937 3.689-3.937 1.972.017 3.672 1.75 3.672 3.937s-1.7 3.92-3.689 3.92c-1.955.016-3.672-1.717-3.672-3.92Z"/><path fill="#1ABCFE" d="M20.441 40.008c0-3.129 2.567-5.67 5.73-5.67 3.161 0 5.728 2.541 5.728 5.67 0 3.13-2.567 5.67-5.729 5.67s-5.729-2.54-5.729-5.67Z"/><path fill="#0ACF83" d="M9 51.33c0-3.129 2.567-5.669 5.729-5.669h5.729v5.67c0 3.129-2.567 5.669-5.729 5.669S9 54.46 9 51.33Z"/><path fill="#FF7262" d="M20.441 34.339h5.73c3.161 0 5.728-2.54 5.728-5.67C31.9 25.54 29.332 23 26.17 23h-5.729v11.339Z"/><path fill="#F24E1E" d="M9 28.686c0 3.13 2.567 5.67 5.729 5.67h5.729V23.032h-5.729C11.567 23.016 9 25.557 9 28.686Z"/><path fill="#A259FF" d="M9 40.008c0 3.13 2.567 5.67 5.729 5.67h5.729V34.355h-5.729C11.567 34.34 9 36.88 9 40.008Z"/></svg>