<svg xmlns="http://www.w3.org/2000/svg" fill="none" viewBox="0 0 122 80"><path fill="#E67A55" d="M59.57 49.066c-1.801.507-3.708-.313-4.61-1.983a5.8 5.8 0 0 1 .192-6.285c1.602-2.454 5.256-2.41 6.898.021.647.992.988 2.159.98 3.35-.031 2.469-1.4 4.406-3.46 4.897Zm7.73-6.991c-.635-3.572-3.695-7.056-8.706-7.081a25.042 25.042 0 0 0-3.283.663c-4.626 1.57-6.54 6.64-5.195 11.35.99 3.466 4.123 6.203 8.788 6.09 5.765-.14 9.47-4.991 8.396-11.022Zm48.7 9.66a3.25 3.25 0 0 1-2.944 1.325 12.655 12.655 0 0 1-2.339-.193c-1.922-.457-2.987-1.86-3.004-3.89-.024-2.835-.003-5.67-.009-8.506-.002-1.126-.012-1.126-1.114-1.182-1.17-.06-1.801-.624-1.885-1.685-.133-1.022.571-1.96 1.573-2.096l.064-.008c.427-.08 1.068-.016 1.231-.27.23-.36.113-.953.131-1.447.013-.383-.011-.767.006-1.15.011-1.127.916-2.033 2.021-2.023h.002c1.266-.052 2.11.658 2.216 1.913.049.571.019 1.15.026 1.723.016 1.212.017 1.197 1.17 1.237.447-.005.893.06 1.321.193.945.33 1.449 1.377 1.126 2.34-.033.101-.076.199-.126.292a1.556 1.556 0 0 1-1.412.973c-.413.008-.827.027-1.24.007-.57-.028-.834.231-.831.807.013 2.375-.037 4.753.054 7.124.057 1.466.603 1.96 2.065 1.995.996.024 1.446.657 1.898 1.372v1.15ZM8.106 45.478c0 .23-.006.46 0 .69a7.761 7.761 0 0 0 .904 3.743 2.693 2.693 0 0 0 3.113 1.477c.59-.103 1.177-.23 1.758-.379 2.747-.702 5.506-1.112 8.346-.637 1.626.272 3.264.512 4.906.625 2.698.185 3.498-.9 3.755-2.757.392-2.613.404-5.27.035-7.886-.194-1.283-.493-2.564-1.557-3.47a.435.435 0 0 1-.005-.418c.965-1.01.64-2.032.014-3.025a6.771 6.771 0 0 0-2.782-2.441 16.348 16.348 0 0 0-6.372-1.685 16.2 16.2 0 0 0-7.99 1.428 5.489 5.489 0 0 0-2.472 2.105c-.469.77-.696 1.726-.074 2.355.886.896.66 1.554.03 2.374-.2.323-.355.674-.46 1.041-.848 2.205-1.01 4.53-1.15 6.86ZM5 44.145c.165-.854.337-1.707.495-2.563.313-1.704.76-3.359 1.788-4.78.321-.444.378-.804-.075-1.176a2.588 2.588 0 0 1-.37-.433c-1.126-1.456-1.152-2.798-.078-4.306a7.463 7.463 0 0 1 2.671-2.25c6.266-3.304 12.64-3.546 19.041-.484 1.201.626 2.3 1.436 3.262 2.4a5.42 5.42 0 0 1 1.645 4.02 2.651 2.651 0 0 1-.934 2.23c-.197.16-.494.289-.151.597 1.094.983 1.24 2.355 1.27 3.68.077 3.176.047 6.356.021 9.534a11.391 11.391 0 0 1-.269 2.042 2.027 2.027 0 0 1-1.824 1.772 18.627 18.627 0 0 1-3.582.179c-2.317-.178-4.616-.612-6.934-.75a28.13 28.13 0 0 0-4.71.248c-2.047.226-4.075.646-6.125.845-2.784.27-3.817-.52-4.48-3.31-.22-.922-.264-1.887-.4-2.83-.072-.484-.173-.963-.261-1.445v-3.22Zm34.799.395v4.249c0 .076 0 .153.002.23.088 2.026 1.133 3.381 3.055 3.875a7.158 7.158 0 0 0 3.67-.03c1.13-.301 1.583-.923 1.505-1.942-.081-1.055-.682-1.592-1.89-1.69-1.42-.113-1.942-.66-1.95-2.096a527.645 527.645 0 0 1-.003-6.086c.01-1.912-.206-1.747 1.655-1.765 1.168-.012 1.9-.69 1.95-1.756.024-1.041-.74-1.927-1.757-2.035a4.561 4.561 0 0 0-1.013-.014c-.623.059-.858-.18-.85-.838.04-.837-.019-1.675-.173-2.498-.268-1.174-1.197-1.688-2.413-1.514-1.007.133-1.766 1-1.782 2.036-.025.535-.004 1.072-.008 1.608-.007 1.106-.008 1.106-1.055 1.204-1.06.099-1.73.62-1.895 1.479-.261 1.36.463 2.258 1.885 2.332 1.047.055 1.056.055 1.063 1.117.01 1.377.003 2.756.004 4.134Zm56.372-9.398a7.807 7.807 0 0 0-4.861 1.237c-1.695 1.175-2.333 2.822-2.121 4.864.136 1.655 1.24 3.063 2.796 3.56 1.254.482 2.584.757 3.88 1.13.839.188 1.663.439 2.467.75 1.047.48 1.138 1.7.202 2.398a3.02 3.02 0 0 1-1.436.588 6.272 6.272 0 0 1-2.227-.124 24.792 24.792 0 0 1-3.147-1.202c-1.017-.438-1.94-.219-2.46.655-.498.839-.323 1.739.593 2.396a8.11 8.11 0 0 0 1.896.975c1.85.66 3.824.886 5.772.658a7.74 7.74 0 0 0 3.962-1.497c2.559-1.925 2.612-6.702-.692-8.264a22.833 22.833 0 0 0-3.293-1.127c-1.041-.309-2.116-.5-3.157-.814a1.213 1.213 0 0 1-1.007-1.102 1.41 1.41 0 0 1 .878-1.358 3.454 3.454 0 0 1 2.504-.414c1.151.317 2.278.727 3.411 1.108a1.72 1.72 0 0 0 2.046-.736 1.48 1.48 0 0 0-.338-1.965 5.42 5.42 0 0 0-1.413-.911 10.179 10.179 0 0 0-4.255-.805Z"/><path fill="#E67A55" d="M81.1 47.349c0 1.488-.264 1.883-1.481 2.395a4.82 4.82 0 0 1-3.62.168 2.564 2.564 0 0 1-1.787-2.394 2.605 2.605 0 0 1 1.799-2.39 4.764 4.764 0 0 1 3.717.211c.911.398 1.674.96 1.372 2.01Zm4.373-1.432c0-1.532.02-3.063-.004-4.594-.049-3.099-1.606-5.173-4.541-5.876a12.13 12.13 0 0 0-7.92.744 4.895 4.895 0 0 0-1.517 1.143 1.652 1.652 0 0 0 .214 2.295 1.575 1.575 0 0 0 1.665.234c.311-.127.587-.342.892-.485a6.241 6.241 0 0 1 5.02-.337 2.563 2.563 0 0 1 1.771 2.053c.074.761.085 1.528.035 2.292-.007.44-.228.413-.497.18a2.941 2.941 0 0 0-.256-.223 7.566 7.566 0 0 0-7.39-.846 4.656 4.656 0 0 0-2.782 2.976c-1.06 2.923.405 6.168 3.272 7.248.594.224 1.22.342 1.853.35 1.942.082 3.73-.328 5.234-1.651.379-.334.568-.262.711.179.18.6.66 1.058 1.26 1.2 1.664.449 2.942-.526 2.974-2.288.027-1.531.006-3.063.006-4.594ZM39.799 44.54c-.001-1.378.005-2.757-.004-4.134-.007-1.062-.016-1.062-1.063-1.117-1.422-.074-2.146-.971-1.885-2.332.165-.858.834-1.38 1.895-1.48 1.047-.097 1.048-.097 1.055-1.203.004-.536-.017-1.073.008-1.608.016-1.036.775-1.903 1.782-2.036 1.215-.174 2.145.34 2.413 1.514.154.823.212 1.661.172 2.498-.007.657.229.897.852.838a4.561 4.561 0 0 1 1.012.014c1.016.108 1.78.994 1.757 2.035-.05 1.065-.782 1.744-1.95 1.756-1.862.019-1.646-.147-1.655 1.765-.009 2.029-.008 4.057.002 6.086.01 1.436.53 1.982 1.95 2.097 1.21.097 1.81.634 1.89 1.689.08 1.019-.374 1.64-1.505 1.942-1.2.329-2.463.34-3.669.03-1.922-.494-2.967-1.849-3.055-3.876-.003-.076-.002-.153-.002-.23V44.54Zm56.372-9.398c1.458-.04 2.908.234 4.255.804a5.42 5.42 0 0 1 1.413.912 1.48 1.48 0 0 1 .338 1.965 1.72 1.72 0 0 1-2.046.736c-1.133-.381-2.26-.79-3.41-1.108a3.454 3.454 0 0 0-2.505.414 1.41 1.41 0 0 0-.878 1.358c.048.56.463 1.014 1.007 1.102 1.04.313 2.116.505 3.157.814 1.124.29 2.225.668 3.293 1.127 3.304 1.562 3.251 6.339.692 8.264a7.74 7.74 0 0 1-3.962 1.497 12.755 12.755 0 0 1-5.772-.658 8.11 8.11 0 0 1-1.896-.975c-.916-.657-1.091-1.557-.594-2.396.52-.874 1.444-1.092 2.461-.655 1.022.472 2.073.873 3.147 1.202.73.174 1.483.216 2.227.124a3.02 3.02 0 0 0 1.436-.588c.936-.697.845-1.918-.203-2.398a17.368 17.368 0 0 0-2.467-.75c-1.295-.373-2.625-.648-3.88-1.13-1.554-.497-2.66-1.905-2.795-3.56-.212-2.042.426-3.689 2.121-4.864a7.807 7.807 0 0 1 4.861-1.237Z"/></svg>