<svg xmlns="http://www.w3.org/2000/svg" fill="none" viewBox="0 0 122 80"><path fill="#10069F" d="M11.93 32.852c-.069-.095-.147-.145-.234-.145a.332.332 0 0 0-.18.062c-.66.544-1.563 2.847-2.304 5.882l.656.008c1.294.015 2.63.032 3.952.053a64.349 64.349 0 0 0-.98-3.544c-.44-1.406-.738-2.036-.91-2.316Z"/><path fill="#10069F" d="M13.4 27C6.55 27 1 32.82 1 40s5.551 13 12.4 13c6.847 0 12.398-5.82 12.398-13S20.248 27 13.4 27Zm8.915 13.236-.003.003a.654.654 0 0 1-.041.032l-.014.01a.996.996 0 0 1-.03.018l-.026.016-.001.001a.632.632 0 0 1-.306.08h-5.873c.047.203.098.435.154.687.321 1.458 1.177 5.329 2.085 5.329h.018l.01-.001h.017c.71 0 1.072-1.076 1.866-3.433l.01-.028c.127-.379.27-.806.427-1.257l.04-.116a.285.285 0 0 1 .266-.193c.157 0 .284.134.284.298 0 .03-.004.059-.012.086l-.033.116c-.082.28-.17.662-.272 1.104-.473 2.056-1.188 5.161-3.021 5.161h-.014c-1.184-.01-1.893-1.995-2.196-2.843-.566-1.586-.995-3.275-1.408-4.911H8.835L7.713 44.16l-.016-.014a.566.566 0 0 1-.482.278.587.587 0 0 1-.571-.595v-.02l.069-.427c.154-.968.34-1.972.552-2.988H4.983l-.009-.009c-.414-.062-.732-.446-.732-.892 0-.438.295-.812.703-.888a4.032 4.032 0 0 1 .378-.01c.723.013 1.491.025 2.333.036 1.192-5.077 2.572-7.654 4.103-7.661 1.643 0 2.862 3.922 3.838 7.759l.004.015c2.004.042 4.14.103 6.217.26l.087.008c.034 0 .066.004.098.01h.012c.004 0 .007.002.01.003h.006a.68.68 0 0 1 .527.676.702.702 0 0 1-.243.534ZM32.68 43.253l-.984 2.546H28.84l5.434-13.298h2.522L42.211 45.8h-2.837l-.983-2.547h-5.712Zm2.837-7.389-1.855 4.842h3.746l-1.892-4.842ZM58.306 40.687V45.8H55.73v-4.88c0-1.478-.686-2.275-1.891-2.275-.538 0-1.132.253-1.67 1.03.038.331.075.662.075 1.012V45.8h-2.578v-4.88c0-1.478-.686-2.275-1.91-2.275-.5 0-1.057.311-1.576 1.05V45.8h-2.577v-9.313h2.577v.564c.556-.545 1.15-.856 2.188-.856 1.132 0 2.133.467 2.838 1.322.945-.914 1.836-1.322 3.226-1.322 2.17 0 3.876 1.77 3.876 4.492ZM69.637 41.153c0 2.702-1.966 4.84-4.414 4.84-1.001 0-1.836-.271-2.521-.738v5.035h-2.578V36.486h2.578v.545c.686-.467 1.52-.739 2.521-.739 2.448 0 4.414 2.12 4.414 4.86Zm-2.541 0c0-1.38-.964-2.586-2.3-2.586-.76 0-1.52.272-2.095 1.088v2.975c.575.797 1.335 1.07 2.095 1.07 1.335 0 2.3-1.186 2.3-2.547ZM73.66 45.8h-2.577V31.995h2.577v13.803ZM75.978 33.201c0-.913.686-1.594 1.558-1.594.853 0 1.539.68 1.539 1.594 0 .895-.686 1.556-1.54 1.556-.87 0-1.557-.661-1.557-1.556Zm2.856 3.286V45.8h-2.578v-9.313h2.578ZM88.198 45.664c-1.076.35-1.558.427-2.392.427-2.151 0-3.56-1.594-3.56-4.005v-3.324h-1.873v-2.275h1.872v-3.325h2.56v3.325h3.207v2.275h-3.208v3.305c0 1.05.612 1.536 1.558 1.536.482 0 1.001-.117 1.502-.253l.334 2.314ZM98.545 45.8h-2.577v-.662c-.723.603-1.54.953-2.54.953-2.337 0-3.895-1.77-3.895-4.471v-5.133h2.578v4.88c0 1.477.704 2.275 1.91 2.275.648 0 1.353-.409 1.947-1.167v-5.988h2.577v9.312ZM109.486 45.8h-2.577v-.545c-.686.467-1.521.739-2.522.739-2.448 0-4.432-2.12-4.432-4.861 0-2.702 1.984-4.841 4.432-4.841 1.001 0 1.836.272 2.522.738v-5.034h2.577v13.803Zm-2.578-3.17v-2.974c-.574-.797-1.335-1.07-2.095-1.07-1.354 0-2.3 1.187-2.3 2.547 0 1.38.946 2.586 2.3 2.586.76 0 1.521-.272 2.095-1.088ZM119.944 41.834h-6.545c.204 1.088.89 1.944 2.299 1.944.723 0 1.224-.233 1.502-.7h2.689c-.482 1.788-2.151 3.013-4.247 3.013-2.855 0-4.784-2.158-4.784-4.938 0-2.877 1.91-4.958 4.71-4.958 2.541 0 4.432 1.886 4.432 4.764 0 .388-.018.602-.056.875Zm-6.527-1.595h4.024c-.148-1.166-.816-1.808-1.854-1.808-1.243 0-1.929.758-2.17 1.808Z"/></svg>