<svg xmlns="http://www.w3.org/2000/svg" fill="none" viewBox="0 0 122 80"><path fill="#043F93" d="M28.326 47.144c-.085-.052-.221-.035-.323.12-.68.933-3.128 3.99-6.323 3.99-5.031 0-8.397-4.387-8.397-10.915 0-5.768 2.975-9.948 7.071-9.948a2.97 2.97 0 0 1 1.836.64l4.266 3.315a.303.303 0 0 0 .357.035.365.365 0 0 0 .187-.311v-3.782a.371.371 0 0 0-.187-.329c-1.496-.725-3.416-1.14-5.405-1.14C14.099 28.82 9 34.192 9 41.894 9 48.905 13.504 54 19.708 54c5.031 0 8.04-3.972 8.737-6.476.068-.208-.017-.329-.12-.38Zm17.507 4.818a.158.158 0 0 1-.051-.12V40.096c0-2.694-1.92-4.542-4.793-4.576-2.38-.035-4.47 1.571-5.49 2.348-.136.104-.255.19-.357.26-.017.017-.034.017-.034 0-.017 0-.017-.018-.017-.035V27.352a.363.363 0 0 0-.136-.277.351.351 0 0 0-.29-.069c-.033 0-3.603.587-4.758.864a.31.31 0 0 0-.238.293.338.338 0 0 0 .186.346c.035.034.986.69 1.292.846.102.052.17.173.17.294v22.175a.252.252 0 0 1-.034.12l-1.24.916a.359.359 0 0 0-.085.38c.05.138.17.225.323.225h5.915a.349.349 0 0 0 .322-.225.38.38 0 0 0-.085-.397l-1.223-.898a.188.188 0 0 1-.051-.121v-11.9c0-.051.017-.103.068-.138 1.121-.984 2.175-1.537 3.263-1.71.884-.138 1.785.156 2.465.76a3.297 3.297 0 0 1 1.087 2.47v10.5a.324.324 0 0 1-.034.122l-1.257.95c-.102.103-.136.258-.068.38.05.137.17.224.323.224h5.898c.187 0 .34-.173.34-.363 0-.086-.034-.19-.102-.242-.068.018-1.31-.915-1.31-.915Zm17.694-4.438c-.136-.07-.289-.035-.391.103-.918 1.26-2.839 3.368-5.303 3.368-3.654 0-6.102-2.919-6.255-7.444 0-.052.017-.086.05-.12a.191.191 0 0 1 .137-.052h11.524a.353.353 0 0 0 .272-.139c.068-.086.085-.19.068-.293-.952-4.888-3.4-7.461-7.037-7.461-4.657 0-8.176 4.128-8.176 9.602 0 5.32 3.213 8.895 8.006 8.895 3.349 0 6-2.21 7.24-6.08.052-.138 0-.31-.135-.38Zm-11.915-5.63c.323-3.161 1.904-5.044 4.198-5.044 2.09 0 3.298 1.503 4.063 5.026.017.104-.034.19-.136.207h-7.955a.154.154 0 0 1-.136-.069c-.017-.017-.034-.069-.034-.12Zm28.215 6.355a.266.266 0 0 0-.357.103l-.068.104c-.714 1.088-1.7 2.59-4.266 2.59-3.603 0-6.238-3.16-6.238-7.512 0-3.713 1.938-6.632 4.402-6.632.153 0 .306.017.46.035.305.034.611.155.866.362l3.722 2.902a.304.304 0 0 0 .357.034.365.365 0 0 0 .187-.31v-3.23c0-.138-.068-.26-.187-.31-1.138-.554-2.685-.899-4.164-.899-5.167 0-8.77 3.972-8.77 9.637 0 5.302 3.042 8.86 7.563 8.86 4.385 0 5.898-3.057 6.646-5.354a.3.3 0 0 0-.153-.38Zm30.901-12.435a2.815 2.815 0 0 0-1.394-.328c-1.241 0-2.804.985-4.623 2.919 0 .017-.017.017-.034 0-.017 0-.017-.017-.017-.035l-.102-2.487a.354.354 0 0 0-.136-.259.293.293 0 0 0-.289-.052l-4.487 1.313a.334.334 0 0 0-.238.259c-.034.12.017.26.102.345l1.479 1.382a.198.198 0 0 1 .051.138v12.815a.158.158 0 0 1-.051.12l-1.071.916a.359.359 0 0 0-.085.38c.05.138.17.225.323.225h5.677a.349.349 0 0 0 .323-.225.356.356 0 0 0-.102-.397l-1.139-.898a.198.198 0 0 1-.051-.138V40.684c0-.155.034-.293.102-.431.255-.501.68-.968 1.19-1.347.527-.38 1.037-.726 1.7-.553.492.12 1.512.915 2.124 1.382.221.172.391.31.493.362a.373.373 0 0 0 .357.017.364.364 0 0 0 .17-.31v-3.575a.539.539 0 0 0-.272-.415ZM90.45 42.377c-.034-.035.051-.12.136-.207l5.932-5.648a.317.317 0 0 0 .034-.397c-.05-.086-.153-.12-.238-.12h-4.3a.359.359 0 0 0-.289.57l1.122 1.536a.187.187 0 0 1-.017.242l-6.238 5.993v-16.96a.344.344 0 0 0-.34-.345c-.034 0-.05 0-.085.017-.034 0-3.603.587-4.76.864a.31.31 0 0 0-.237.293.353.353 0 0 0 .17.346c.034.034.918.639 1.275.829.102.051.17.172.17.293v22.158a.325.325 0 0 1-.034.121l-1.258.95a.358.358 0 0 0 0 .5c.068.07.153.104.255.104h5.915a.349.349 0 0 0 .323-.224.38.38 0 0 0-.085-.397l-1.224-.898a.188.188 0 0 1-.05-.121v-5.734c0-.052.016-.086.05-.121l1.207-1.209a.183.183 0 0 1 .255 0l.017.017c.034.052 3.416 4.888 5.116 7.288.034.035.017.087-.017.121l-.833.726a.376.376 0 0 0-.017.5c.068.07.17.104.255.104h5.507c.17 0 .238-.086.272-.155.068-.156-.068-.38-.153-.484-.22-.276-7.734-10.414-7.836-10.552Z"/></svg>