<svg xmlns="http://www.w3.org/2000/svg" fill="none" viewBox="0 0 122 80"><path fill="#333" d="m48.15 42.392-2.089-5.39c-.085-.22-.41-.22-.496 0l-2.089 5.39a.244.244 0 0 0 .031.233.262.262 0 0 0 .218.108h4.177a.274.274 0 0 0 .217-.108.247.247 0 0 0 .031-.233Zm.965 3.03h-6.604a.274.274 0 0 0-.15.045.256.256 0 0 0-.098.12l-1.3 3.353a.256.256 0 0 1-.097.12.273.273 0 0 1-.15.045h-2.863a.273.273 0 0 1-.22-.111.246.246 0 0 1-.026-.236l6.59-15.713a.256.256 0 0 1 .097-.116.273.273 0 0 1 .149-.043h2.74c.108 0 .206.063.246.159l6.59 15.712a.244.244 0 0 1-.027.237.273.273 0 0 1-.22.112h-2.86a.273.273 0 0 1-.152-.046.255.255 0 0 1-.097-.12l-1.3-3.354a.256.256 0 0 0-.097-.12.273.273 0 0 0-.151-.045Zm6.244-7.022h2.448a.27.27 0 0 1 .188.075c.05.047.077.111.077.179v10.198a.248.248 0 0 1-.078.179.27.27 0 0 1-.187.074H55.36a.27.27 0 0 1-.187-.074.248.248 0 0 1-.077-.18V38.655c0-.068.028-.132.077-.18a.27.27 0 0 1 .187-.074ZM67 40.881a.248.248 0 0 1-.078.18.27.27 0 0 1-.187.073h-.074c-1.21 0-2.098.278-2.663.834-.565.556-.847 1.476-.847 2.758v4.126a.248.248 0 0 1-.077.179.27.27 0 0 1-.188.074h-2.424a.27.27 0 0 1-.187-.074.248.248 0 0 1-.077-.18V38.655c0-.068.028-.132.077-.18a.27.27 0 0 1 .188-.074h2.4c.07 0 .137.027.186.074.05.048.078.112.078.18v2.017h.048c.29-.834.75-1.475 1.38-1.923.63-.448 1.404-.672 2.324-.672H67v2.805Zm6.694-.094a.271.271 0 0 0-.188.074.248.248 0 0 0-.077.18v4.241c0 .433.088.742.266.927.177.185.484.278.92.278h.244a.27.27 0 0 1 .187.074c.05.048.077.112.077.18v2.134a.248.248 0 0 1-.077.179.271.271 0 0 1-.188.074h-1.042c-1.081 0-1.912-.266-2.493-.8-.581-.532-.872-1.323-.872-2.374V41.04a.248.248 0 0 0-.077-.18.27.27 0 0 0-.188-.073h-1.528a.27.27 0 0 1-.187-.075.248.248 0 0 1-.077-.179v-1.88c0-.067.027-.131.077-.179a.27.27 0 0 1 .187-.074h1.529c.07 0 .137-.027.187-.074a.248.248 0 0 0 .077-.18v-3.78c0-.066.028-.13.078-.178a.271.271 0 0 1 .187-.075h2.448c.07 0 .138.027.187.075.05.047.078.112.078.179v3.78c0 .067.028.131.077.179.05.047.117.074.187.074h1.77c.07 0 .138.027.188.074.05.048.077.112.077.18v1.88a.248.248 0 0 1-.077.179.271.271 0 0 1-.187.074h-1.77Zm11.21 5.144c.556-.556.834-1.282.834-2.178 0-.896-.278-1.622-.835-2.178-.557-.556-1.287-.835-2.19-.835-.905 0-1.634.279-2.191.835-.557.556-.836 1.282-.836 2.178 0 .896.279 1.622.836 2.178.556.556 1.286.834 2.19.834.904 0 1.634-.278 2.191-.834Zm-5.653 2.85c-.823-.448-1.473-1.1-1.949-1.958-.476-.857-.714-1.88-.714-3.07s.238-2.213.714-3.07c.476-.858 1.126-1.51 1.949-1.958a5.578 5.578 0 0 1 2.711-.672c.871 0 1.618.162 2.24.486.62.324 1.116.78 1.488 1.367h.048v-1.252c0-.068.028-.132.078-.18a.27.27 0 0 1 .187-.074h2.424c.07 0 .137.027.187.074.05.048.078.112.078.18v10.198a.248.248 0 0 1-.078.179.271.271 0 0 1-.187.074h-2.424a.27.27 0 0 1-.187-.074.248.248 0 0 1-.078-.18V47.6h-.048a3.826 3.826 0 0 1-1.489 1.367c-.621.324-1.367.486-2.239.486a5.58 5.58 0 0 1-2.711-.671Zm19.521-2.85c.557-.556.835-1.282.835-2.178 0-.896-.278-1.622-.835-2.178-.557-.556-1.287-.835-2.19-.835-.905 0-1.635.279-2.191.835-.557.556-.836 1.282-.836 2.178 0 .896.279 1.622.836 2.178.556.556 1.286.834 2.19.834.904 0 1.634-.278 2.191-.834Zm-3.68 3.035a3.819 3.819 0 0 1-1.488-1.367h-.049v1.253a.248.248 0 0 1-.077.179.27.27 0 0 1-.187.074h-2.448a.27.27 0 0 1-.188-.074.248.248 0 0 1-.077-.18V33.14c0-.068.028-.132.078-.18a.27.27 0 0 1 .187-.074h2.448a.27.27 0 0 1 .187.075c.05.047.077.111.077.179v6.767h.049a3.82 3.82 0 0 1 1.489-1.367c.62-.324 1.367-.486 2.239-.486a5.58 5.58 0 0 1 2.711.671c.823.449 1.472 1.101 1.949 1.958.475.858.714 1.882.714 3.07 0 1.19-.239 2.214-.714 3.071-.476.857-1.126 1.51-1.949 1.958a5.578 5.578 0 0 1-2.711.672c-.872 0-1.618-.163-2.24-.487Zm11.738.14h-2.448a.271.271 0 0 1-.187-.075.25.25 0 0 1-.077-.18V33.14a.25.25 0 0 1 .077-.179.271.271 0 0 1 .187-.074h2.448c.071 0 .138.026.188.074a.25.25 0 0 1 .077.18v15.712a.25.25 0 0 1-.077.179.272.272 0 0 1-.188.074Zm5.775-8.226c-.406.303-.68.74-.822 1.313-.039.157.09.309.259.309h4.659c.162 0 .289-.139.262-.292-.093-.541-.335-.973-.727-1.296-.46-.378-1.061-.567-1.804-.567-.742 0-1.351.177-1.827.533Zm5.967-1.333c.952.997 1.428 2.406 1.428 4.229v.303a.247.247 0 0 1-.078.179.27.27 0 0 1-.187.074h-7.783a.273.273 0 0 0-.203.09.249.249 0 0 0-.059.208c.125.677.437 1.215.939 1.614.573.456 1.295.683 2.167.683 1.125 0 2.166-.42 3.123-1.26a.272.272 0 0 1 .394.043l1.19 1.635a.246.246 0 0 1-.041.335 8.796 8.796 0 0 1-1.931 1.228c-.775.363-1.687.545-2.735.545-1.211 0-2.268-.236-3.172-.707a5.112 5.112 0 0 1-2.105-1.993c-.501-.857-.751-1.85-.751-2.977 0-1.128.242-2.124.726-2.99a5.099 5.099 0 0 1 2.034-2.015c.871-.479 1.888-.718 3.05-.718 1.71 0 3.041.498 3.994 1.494Zm-60.18-4.917c0 .956-.81 1.73-1.808 1.73-1 0-1.809-.774-1.809-1.73s.81-1.73 1.809-1.73c.998 0 1.808.774 1.808 1.73Z"/><path fill="#FCB400" d="m13.941 28.316-11.64 4.61a.735.735 0 0 0 .01 1.384l11.69 4.436c1.026.39 2.17.39 3.197 0l11.689-4.437a.735.735 0 0 0 .01-1.383l-11.64-4.61a4.517 4.517 0 0 0-3.316 0Z"/><path fill="#18BFFF" d="M16.636 41.169v11.084c0 .527.556.888 1.068.694l13.024-4.84a.774.774 0 0 0 .358-.274.724.724 0 0 0 .135-.42V36.33c0-.527-.556-.888-1.068-.694l-13.024 4.84a.774.774 0 0 0-.358.274.723.723 0 0 0-.135.419Z"/><path fill="#F82B60" d="M13.595 41.74 9.73 43.528l-.393.182-8.16 3.742C.66 47.691 0 47.33 0 46.78V36.376c0-.198.107-.37.25-.5a.883.883 0 0 1 .197-.141.864.864 0 0 1 .71-.053l12.373 4.693c.629.239.678 1.082.065 1.366Z"/><path fill="#000" fill-opacity=".25" d="M13.595 41.74 9.73 43.528l-9.48-7.65a.883.883 0 0 1 .197-.142.864.864 0 0 1 .71-.053l12.373 4.693c.629.239.678 1.082.065 1.366Z"/></svg>