<svg width="49" height="48" viewBox="0 0 49 48" fill="none" xmlns="http://www.w3.org/2000/svg">
<g clip-path="url(#clip0_3638_9527)">
<path d="M6.44375 0.3375C6.18125 0.61875 6.125 1.125 6.125 3.15V5.625H3.63125C1.4375 5.625 1.08125 5.6625 0.81875 5.9625C0.51875 6.28125 0.5 7.70625 0.5 22.5375C0.5 38.0062 0.51875 38.775 0.8375 39.0563C1.15625 39.3375 2.01875 39.375 9.275 39.375H17.375V45.1875H14.9375C12.6875 45.1875 12.4812 45.225 12.125 45.6C11.6188 46.1625 11.6375 47.0812 12.1813 47.5875L12.6125 48H36.4812L36.8562 47.5125C37.3812 46.8562 37.3625 46.1063 36.8188 45.6C36.425 45.225 36.1813 45.1875 34.0063 45.1875H31.625V39.375H39.7438C47.3937 39.375 47.9 39.3563 48.1813 39.0375C48.4813 38.7188 48.5 37.2938 48.5 22.4625C48.5 6.99375 48.4813 6.225 48.1625 5.94375C47.8813 5.68125 47.375 5.625 45.35 5.625H42.875V3.13125C42.875 0.9375 42.8375 0.58125 42.5375 0.31875C42.2188 0.01875 40.7 0 24.4625 0C7.53125 0 6.725 0.01875 6.44375 0.3375ZM40.0625 11.25H8.9375V2.8125H40.0625V11.25ZM6.125 20.7562C6.125 31.95 6.1625 33.0938 6.44375 33.4125C6.725 33.7313 7.53125 33.75 24.4625 33.75C40.7 33.75 42.2188 33.7313 42.5375 33.4313C42.8563 33.15 42.875 32.5125 42.875 20.775V8.4375H45.6875V36.5625H3.3125V8.4375H6.125V20.7562ZM40.0625 30.9375H8.9375V14.0625H40.0625V30.9375ZM28.625 45.1875H20.375V39.375H28.625V45.1875Z" fill="white"/>
<path d="M12.125 6.0375C11.2437 6.975 11.9562 8.4375 13.2875 8.4375C14.5625 8.4375 15.2187 6.88125 14.3187 6.0375C13.7375 5.475 12.65 5.475 12.125 6.0375Z" fill="white"/>
<path d="M17.75 6.0375C16.8687 6.975 17.5813 8.4375 18.9125 8.4375C20.1875 8.4375 20.8438 6.88125 19.9438 6.0375C19.3625 5.475 18.275 5.475 17.75 6.0375Z" fill="white"/>
<path d="M23.375 6.0375C22.4937 6.975 23.2063 8.4375 24.5375 8.4375C25.8125 8.4375 26.4688 6.88125 25.5688 6.0375C24.9875 5.475 23.9 5.475 23.375 6.0375Z" fill="white"/>
<path d="M12.125 17.2875C11.6188 17.85 11.6375 18.7687 12.1812 19.275C12.6125 19.6687 12.7437 19.6875 17.5062 19.6875H22.4188L22.7938 19.2C23.3188 18.5438 23.3 17.7937 22.7562 17.2875C22.325 16.8937 22.1937 16.875 17.4125 16.875C12.6125 16.875 12.5 16.875 12.125 17.2875Z" fill="white"/>
<path d="M26.2063 17.3625C25.9813 17.6437 25.8125 18.0375 25.8125 18.2625C25.8125 18.9187 28.7 27.375 29.0562 27.7687C29.2812 27.9937 29.6375 28.125 30.125 28.125C30.725 28.125 31.0063 27.975 31.8875 27.1687L32.9375 26.2125L33.9875 27.1687C34.85 27.9562 35.15 28.125 35.7313 28.125C36.6125 28.125 37.25 27.5062 37.25 26.6625C37.25 26.2125 37.0062 25.8187 36.2188 24.975L35.2062 23.8687L35.9562 23.1375C37.2687 21.8625 37.5312 21.0375 36.875 20.1937C36.575 19.8187 35.6 19.425 32.225 18.3C29.8813 17.5125 27.65 16.875 27.275 16.875C26.75 16.875 26.4875 16.9875 26.2063 17.3625Z" fill="white"/>
<path d="M12.125 22.9125C11.6188 23.475 11.6375 24.3937 12.1812 24.9C12.6125 25.2937 12.7437 25.3125 17.5062 25.3125H22.4188L22.7938 24.825C23.3188 24.1688 23.3 23.4187 22.7562 22.9125C22.325 22.5187 22.1937 22.5 17.4125 22.5C12.6125 22.5 12.5 22.5 12.125 22.9125Z" fill="white"/>
</g>
<defs>
<clipPath id="clip0_3638_9527">
<rect width="48" height="48" fill="white" transform="translate(0.5)"/>
</clipPath>
</defs>
</svg>
