<svg width="48" height="48" viewBox="0 0 48 48" fill="none" xmlns="http://www.w3.org/2000/svg">
<g clip-path="url(#clip0_3707_50)">
<path d="M2.23136 1.8375C1.59386 2.15625 1.01261 2.6625 0.656356 3.16875L0.0938565 3.975L0.0376065 16.7062C0.000106487 28.9687 0.00010648 29.4562 0.356356 30.1312C0.825106 31.05 1.59386 31.7812 2.47511 32.1375C3.05636 32.4 4.25636 32.4375 10.0314 32.4375H16.8751V33.975C16.8939 36.2062 17.6626 37.6312 19.0314 37.9875L19.4439 38.0812L18.9001 41.2125C18.2251 45.2437 18.2251 45.7875 18.8626 46.2937C19.3314 46.65 19.6126 46.6875 22.6876 46.6875C26.9626 46.6875 26.6064 47.025 27.4689 42.1875C27.8251 40.2 28.1251 38.5312 28.1251 38.5125C28.1251 38.475 30.5814 39.6562 33.5814 41.1562C36.5626 42.6562 39.2251 43.875 39.4501 43.875C39.6939 43.875 40.1064 43.7062 40.3876 43.4812L40.8751 43.1062V21.9562L40.3689 21.5625C39.8439 21.1687 39.2439 21.1312 38.4001 21.4687C38.0814 21.6 38.0626 21.1312 38.0626 13.3125C38.0626 7.3125 38.0064 4.8 37.8376 4.2375C37.5376 3.225 36.1501 1.8375 35.1376 1.5375C34.5564 1.36875 30.5064 1.3125 18.7876 1.3125H3.22511L2.23136 1.8375ZM34.5939 4.78125L35.0626 5.23125V23.1562L31.4064 24.9937L27.7501 26.8125H23.6626C18.6001 26.8125 17.9626 27.0375 17.1564 28.9312L16.8564 29.6437L10.3126 29.5875C3.78761 29.5312 3.75011 29.5312 3.33761 29.1L2.90636 28.6687L2.85011 17.475C2.81261 11.325 2.85011 6 2.90636 5.6625C2.96261 5.325 3.18761 4.875 3.39386 4.66875C3.73136 4.33125 4.14386 4.3125 18.9376 4.3125H34.1439L34.5939 4.78125ZM38.0251 36.15L37.9689 39.9L33.8064 37.875L29.6251 35.85V29.2125L33.8064 27.1875L37.9689 25.1625L38.0251 28.7812C38.0439 30.7875 38.0439 34.0875 38.0251 36.15ZM26.6251 35.25L23.3064 35.2125L19.9689 35.1562L19.9126 32.7375C19.8939 31.3875 19.9126 30.1875 19.9501 30.0562C20.0251 29.8687 20.8126 29.8125 23.3439 29.8125H26.6251V35.25ZM25.0314 38.6625C24.9001 39.2812 24.1876 43.35 24.1876 43.5375C24.1876 43.6125 23.5876 43.6875 22.8564 43.6875H21.5251L21.6376 43.1625C21.6939 42.8812 21.8626 41.85 22.0314 40.875C22.5001 37.9687 22.3126 38.25 23.8126 38.25C25.0876 38.25 25.1251 38.2687 25.0314 38.6625Z" fill="white"/>
<path d="M12.6189 9.975C11.8501 10.35 11.7939 10.8562 11.8501 17.2312L11.9064 23.2875L12.3564 23.6437C12.6001 23.8312 13.0314 24 13.3314 24C13.9314 24 24.9564 18.5812 25.6501 17.9437C26.1001 17.5312 26.1939 16.725 25.8564 16.1062C25.6501 15.6937 13.8939 9.75 13.3501 9.76875C13.1814 9.76875 12.8439 9.8625 12.6189 9.975ZM18.1876 18.4875C16.4814 19.3312 15.0376 20.0437 14.9626 20.0437C14.8689 20.0625 14.8126 18.6187 14.8126 16.875V13.6875L18.0376 15.3L21.2814 16.9125L18.1876 18.4875Z" fill="white"/>
<path d="M45.2626 25.1812C43.8751 25.7812 43.6876 25.9875 43.6876 26.9062C43.6876 27.8625 44.1189 28.3125 45.0376 28.3125C45.7501 28.3125 47.2501 27.7312 47.7189 27.2625C48.1689 26.8125 48.0751 25.65 47.5689 25.1625C47.0251 24.6562 46.4814 24.6562 45.2626 25.1812Z" fill="white"/>
<path d="M44.0064 31.4625C43.5751 31.95 43.5939 33.225 44.0251 33.6187C44.5501 34.0875 47.2501 34.0687 47.6814 33.6C48.1126 33.1125 48.0939 31.8375 47.6626 31.4437C47.1376 30.975 44.4376 30.9937 44.0064 31.4625Z" fill="white"/>
<path d="M44.0064 37.0875C43.5751 37.5563 43.5939 38.85 44.0251 39.225C44.4939 39.6187 46.2189 40.3125 46.7439 40.3125C47.4001 40.3125 48.0001 39.5812 48.0001 38.775C48.0001 37.9688 47.7189 37.65 46.5564 37.125C45.4689 36.6562 44.4189 36.6375 44.0064 37.0875Z" fill="white"/>
</g>
<defs>
<clipPath id="clip0_3707_50">
<rect width="48" height="48" fill="white"/>
</clipPath>
</defs>
</svg>
