<svg width="49" height="48" viewBox="0 0 49 48" fill="none" xmlns="http://www.w3.org/2000/svg">
<g clip-path="url(#clip0_3707_428)">
<path d="M5.075 1.7625C3.51875 3.3 3.3125 3.58125 3.3125 4.1625C3.3125 5.025 3.95 5.625 4.86875 5.625C5.24375 5.625 5.6 5.53125 5.65625 5.4375C5.7125 5.325 5.84375 5.25 5.95625 5.25C6.05 5.25 6.125 10.2938 6.125 18.375C6.125 26.4562 6.05 31.5 5.95625 31.5C5.84375 31.5 5.7125 31.425 5.65625 31.3125C5.6 31.2188 5.225 31.125 4.83125 31.125C3.93125 31.125 3.3125 31.7437 3.3125 32.625C3.3125 33.15 3.55625 33.4875 5.075 34.9875C6.74375 36.6562 6.85625 36.75 7.625 36.75C8.39375 36.75 8.50625 36.6562 10.175 34.9875C11.7312 33.45 11.9375 33.1688 11.9375 32.5875C11.9375 31.725 11.3 31.125 10.3812 31.125C10.0062 31.125 9.65 31.2 9.59375 31.3125C9.5375 31.4062 9.40625 31.5 9.29375 31.5C9.2 31.5 9.125 26.4562 9.125 18.375C9.125 10.2938 9.2 5.25 9.29375 5.25C9.40625 5.25 9.5375 5.325 9.59375 5.4375C9.65 5.53125 10.025 5.625 10.4187 5.625C11.3187 5.625 11.9375 5.00625 11.9375 4.125C11.9375 3.6 11.6937 3.2625 10.175 1.7625C8.50625 0.0937499 8.39375 0 7.625 0C6.85625 0 6.74375 0.0937499 5.075 1.7625Z" fill="white"/>
<path d="M16.85 0.393748C16.4 0.618748 15.8375 1.06875 15.5938 1.3875C14.525 2.79375 14.5625 2.08125 14.5625 18.45V33.525L15.0875 34.5187C15.4062 35.1562 15.9125 35.7375 16.4188 36.0938L17.225 36.6562H43.025L43.8312 36.0938C44.3375 35.7375 44.8437 35.1562 45.1625 34.5187L45.6875 33.525V3.225L45.1625 2.23125C44.8437 1.59375 44.3375 1.0125 43.8312 0.656248L43.025 0.0937477L30.35 0.0374977C17.7125 -2.30542e-06 17.6562 -2.29904e-06 16.85 0.393748ZM41.7312 3.01875C42.05 3.13125 42.4062 3.375 42.5 3.5625C42.7625 4.03125 42.7625 32.7188 42.5 33.1875C42.125 33.9 41.4688 33.9375 30.125 33.9375C18.7812 33.9375 18.125 33.9 17.75 33.1875C17.5437 32.7938 17.4875 4.18125 17.675 3.65625C17.9938 2.85 18.425 2.83125 30.05 2.8125C37.6813 2.8125 41.3187 2.86875 41.7312 3.01875Z" fill="white"/>
<path d="M20.7313 5.98125C20.1125 6.4875 20.1125 7.7625 20.7313 8.26875C21.725 9.075 23.1875 8.4 23.1875 7.125C23.1875 5.85 21.725 5.175 20.7313 5.98125Z" fill="white"/>
<path d="M29.1688 5.98125C28.8312 6.24375 28.7188 6.525 28.7188 7.125C28.7188 7.725 28.8312 8.00625 29.1688 8.26875C30.1625 9.075 31.625 8.4 31.625 7.125C31.625 5.85 30.1625 5.175 29.1688 5.98125Z" fill="white"/>
<path d="M37.6063 5.98125C37.2688 6.24375 37.1563 6.525 37.1563 7.125C37.1563 7.725 37.2688 8.00625 37.6063 8.26875C38.6 9.075 40.0625 8.4 40.0625 7.125C40.0625 5.85 38.6 5.175 37.6063 5.98125Z" fill="white"/>
<path d="M24.9875 11.6437C23.9375 12.4688 24.6125 14.25 25.9813 14.25C27.125 14.25 27.7812 13.0875 27.2375 12.0375C26.7687 11.1562 25.8312 10.9875 24.9875 11.6437Z" fill="white"/>
<path d="M33.425 11.6437C32.375 12.4688 33.05 14.25 34.4187 14.25C35.5625 14.25 36.2188 13.0875 35.675 12.0375C35.2062 11.1562 34.2687 10.9875 33.425 11.6437Z" fill="white"/>
<path d="M20.7313 17.2312C20.1125 17.7375 20.1125 19.0125 20.7313 19.5187C21.725 20.325 23.1875 19.65 23.1875 18.375C23.1875 17.1 21.725 16.425 20.7313 17.2312Z" fill="white"/>
<path d="M29.1688 17.2312C28.8312 17.4937 28.7188 17.775 28.7188 18.375C28.7188 18.975 28.8312 19.2562 29.1688 19.5187C30.1625 20.325 31.625 19.65 31.625 18.375C31.625 17.1 30.1625 16.425 29.1688 17.2312Z" fill="white"/>
<path d="M37.6063 17.2312C37.2688 17.4937 37.1563 17.775 37.1563 18.375C37.1563 18.975 37.2688 19.2562 37.6063 19.5187C38.6 20.325 40.0625 19.65 40.0625 18.375C40.0625 17.1 38.6 16.425 37.6063 17.2312Z" fill="white"/>
<path d="M24.9875 22.8938C24.6125 23.1938 24.5 23.4375 24.5 24C24.5 25.575 26.525 26.1 27.2375 24.7125C28.025 23.1938 26.3563 21.825 24.9875 22.8938Z" fill="white"/>
<path d="M33.425 22.8938C33.05 23.1938 32.9375 23.4375 32.9375 24C32.9375 25.575 34.9625 26.1 35.675 24.7125C36.4625 23.1938 34.7937 21.825 33.425 22.8938Z" fill="white"/>
<path d="M20.7313 28.4812C20.1125 28.9875 20.1125 30.2625 20.7313 30.7687C21.725 31.575 23.1875 30.9 23.1875 29.625C23.1875 28.35 21.725 27.675 20.7313 28.4812Z" fill="white"/>
<path d="M29.1688 28.4812C28.8312 28.7437 28.7188 29.025 28.7188 29.625C28.7188 30.225 28.8312 30.5062 29.1688 30.7687C30.1625 31.575 31.625 30.9 31.625 29.625C31.625 28.35 30.1625 27.675 29.1688 28.4812Z" fill="white"/>
<path d="M37.6063 28.4812C37.2688 28.7437 37.1563 29.025 37.1563 29.625C37.1563 30.225 37.2688 30.5062 37.6063 30.7687C38.6 31.575 40.0625 30.9 40.0625 29.625C40.0625 28.35 38.6 27.675 37.6063 28.4812Z" fill="white"/>
<path d="M16.4375 41.1938C15.4812 42.15 14.7125 43.0687 14.6375 43.3688C14.45 44.1937 14.8625 44.8875 16.55 46.5C17.975 47.8688 18.1812 48 18.8562 48C20.1687 48 20.8062 46.7625 20.075 45.6562L19.775 45.1875H40.475L40.175 45.6562C39.4437 46.7625 40.1187 48 41.4687 48C42.125 48 42.3312 47.85 43.925 46.2375C45.5375 44.6437 45.6875 44.4188 45.6875 43.7812C45.6875 43.1437 45.5375 42.9187 43.925 41.325C42.3125 39.6937 42.125 39.5625 41.4312 39.5625C40.1187 39.5625 39.4437 40.8 40.175 41.9062L40.475 42.375H19.775L20.075 41.9062C20.8062 40.7812 20.1687 39.5625 18.8562 39.5625C18.1438 39.5625 17.975 39.675 16.4375 41.1938Z" fill="white"/>
</g>
<defs>
<clipPath id="clip0_3707_428">
<rect width="48" height="48" fill="white" transform="translate(0.5)"/>
</clipPath>
</defs>
</svg>
