<svg width="49" height="48" viewBox="0 0 49 48" fill="none" xmlns="http://www.w3.org/2000/svg">
<g clip-path="url(#clip0_3707_145)">
<path d="M11.75 22.5H9.14375C7.0625 22.5 6.29375 22.575 5.35625 22.875C2.31875 23.8313 0.5 26.3625 0.5 29.625C0.5 32.8875 2.31875 35.4188 5.35625 36.375C6.29375 36.675 7.0625 36.75 9.14375 36.75H11.75V42.1875H8.9375V45.1875H17.375V42.1875H14.5625V36.75H34.4375V42.1875H31.625V45.1875H40.0625V42.1875H37.25V36.75H39.8375C42.7625 36.75 43.9062 36.5063 45.3875 35.5688C48.7812 33.4125 49.5688 28.4062 47 25.1625C45.425 23.1562 43.6437 22.5 39.8375 22.5H37.25V2.8125H11.75V22.5ZM20.1875 15.1875L28.8125 10.875V5.8125H34.4375V22.5H14.5625V5.8125H20.1875V15.1875ZM25.8125 9L23.1875 10.3125V5.8125H25.8125V9ZM9.33125 26.0062C9.9875 26.3625 10.5312 26.8125 10.9062 27.3375C11.4125 28.0875 11.4688 28.2938 11.4688 29.625C11.4688 30.9563 11.4125 31.1625 10.9062 31.9125C10.2125 32.9062 8.65625 33.75 7.53125 33.75C6.40625 33.75 4.85 32.9062 4.15625 31.9125C3.65 31.1625 3.59375 30.9563 3.59375 29.625C3.59375 28.2938 3.65 28.0875 4.15625 27.3375C4.85 26.3438 6.40625 25.5 7.53125 25.5C8 25.5 8.69375 25.7062 9.33125 26.0062ZM35.0375 26.5687C34.5875 27.5437 34.5312 27.8813 34.5312 29.625C34.5312 31.3687 34.5875 31.7063 35.0375 32.6625L35.5437 33.75H13.4562L13.9625 32.6625C14.4125 31.7063 14.4688 31.3687 14.4688 29.625C14.4688 27.8813 14.4125 27.5437 13.9625 26.5687L13.4562 25.5H35.5437L35.0375 26.5687ZM43.2687 26.0062C43.925 26.3625 44.4688 26.8125 44.8438 27.3375C45.35 28.0875 45.4062 28.2938 45.4062 29.625C45.4062 30.9563 45.35 31.1625 44.8438 31.9125C44.15 32.9062 42.5938 33.75 41.4688 33.75C40.3438 33.75 38.7875 32.9062 38.0938 31.9125C37.5875 31.1625 37.5312 30.9563 37.5312 29.625C37.5312 28.2938 37.5875 28.0875 38.0938 27.3375C38.7875 26.3438 40.3438 25.5 41.4688 25.5C41.9375 25.5 42.6312 25.7062 43.2687 26.0062Z" fill="white"/>
<path d="M25.8125 19.875H31.625V16.875H25.8125V19.875Z" fill="white"/>
<path d="M6.125 31.125H8.9375V28.125H6.125V31.125Z" fill="white"/>
<path d="M17.375 31.125H20.375V28.125H17.375V31.125Z" fill="white"/>
<path d="M23 31.125H26V28.125H23V31.125Z" fill="white"/>
<path d="M28.625 31.125H31.625V28.125H28.625V31.125Z" fill="white"/>
<path d="M40.0625 31.125H42.875V28.125H40.0625V31.125Z" fill="white"/>
</g>
<defs>
<clipPath id="clip0_3707_145">
<rect width="48" height="48" fill="white" transform="translate(0.5)"/>
</clipPath>
</defs>
</svg>
