<svg width="49" height="48" viewBox="0 0 49 48" fill="none" xmlns="http://www.w3.org/2000/svg">
<path d="M24.7813 3.20628C23.5626 3.56253 22.9063 4.38753 21.2376 7.65003C18.9126 12.2063 16.2126 15.9563 13.6813 18.1313L12.6876 18.975L12.0688 18.375C11.0376 17.3438 9.63133 16.8 8.00008 16.8C6.12508 16.8 4.92508 17.325 3.70633 18.675C2.15008 20.3625 2.18758 20.1188 2.18758 30.8438C2.18758 41.5688 2.15008 41.325 3.70633 43.0125C4.92508 44.3438 6.12508 44.8688 8.00008 44.8875C9.16258 44.9063 9.59383 44.8125 10.5126 44.3813C11.1126 44.1 11.9001 43.575 12.2376 43.2L12.8563 42.5438L16.3438 44.9063L25.9813 44.9625C36.6313 45.0188 37.0251 44.9813 38.8063 43.8375C40.3813 42.825 40.7751 42.0938 43.8501 34.4438L46.7188 27.2813V24.6563C46.7001 22.3313 46.6626 21.9 46.2688 20.9063C45.6501 19.3875 44.1126 17.85 42.5938 17.2313C41.5251 16.8188 41.2251 16.7813 36.2938 16.725L31.1001 16.6688L31.9251 14.1938C33.5563 9.26253 32.8813 7.01253 29.0001 4.29378C27.2188 3.03753 26.2063 2.77503 24.7813 3.20628ZM27.3501 7.61253C28.6251 8.60628 29.1876 9.39378 29.1876 10.2188C29.1876 10.5375 28.6438 12.4313 27.9688 14.4375C27.2938 16.4438 26.7501 18.2813 26.7501 18.525C26.7501 19.0875 27.2188 19.9875 27.5938 20.1375C27.7626 20.1938 30.5376 20.25 33.7438 20.25C39.9126 20.2688 40.9251 20.3625 41.7313 20.9438C42.8376 21.7688 43.0626 22.3875 43.0626 24.5438V26.5313L40.4188 33.1313C38.9563 36.7688 37.6063 39.9563 37.4001 40.2188C36.5001 41.3625 36.6876 41.3438 26.8063 41.4L17.7688 41.4563L15.8938 40.2L14.0001 38.9438V22.8188L16.1563 20.7563C19.8313 17.2688 22.1001 14.1563 24.5751 9.20628C25.2688 7.85628 25.9063 6.75003 26.0188 6.75003C26.1313 6.75003 26.7313 7.14378 27.3501 7.61253ZM9.23758 20.7375C10.2501 21.4125 10.2501 21.375 10.2501 31.0125V39.9188L9.61258 40.575C9.08758 41.1375 8.86258 41.25 8.20633 41.25C7.15633 41.25 6.42508 40.8375 6.05008 40.05C5.78758 39.4875 5.75008 38.3813 5.75008 30.8438C5.75008 21.4875 5.75008 21.4313 6.83758 20.775C7.49383 20.3625 8.63758 20.3438 9.23758 20.7375Z" fill="white"/>
</svg>
