<svg xmlns="http://www.w3.org/2000/svg" fill="none" viewBox="0 0 24 24"><path fill="#000000" d="M12 1a9.023 9.023 0 0 0-6.364 2.623A8.933 8.933 0 0 0 3 9.955c0 4.012 2.458 6.018 4.639 7.789 1.83 1.484 3.168 2.702 3.59 4.646A.788.788 0 0 0 12 23a.795.795 0 0 0 .771-.61c.402-1.893 1.718-3.07 3.24-4.34l.34-.306C18.53 15.974 21 13.967 21 9.955a8.933 8.933 0 0 0-2.636-6.332A9.023 9.023 0 0 0 12 1Zm3.57 15.424-.217.174a13.786 13.786 0 0 0-3.086 3.213l-.216.358-.216-.358a11.6 11.6 0 0 0-2.458-2.61l-.689-.614-.206-.163c-2.047-1.69-3.94-3.286-3.94-6.469a7.306 7.306 0 0 1 2.16-5.271A7.407 7.407 0 0 1 12 2.535a7.407 7.407 0 0 1 5.298 2.149 7.306 7.306 0 0 1 2.16 5.271c0 3.183-1.893 4.78-3.889 6.469Z"/><path fill="#3F4144" d="M12 6.117a3.87 3.87 0 0 0-2.143.647 3.842 3.842 0 0 0-1.42 1.723 3.82 3.82 0 0 0 .836 4.182 3.875 3.875 0 0 0 4.204.832 3.852 3.852 0 0 0 1.73-1.413 3.825 3.825 0 0 0-.48-4.847A3.867 3.867 0 0 0 12 6.117Zm0 6.141c-.458 0-.905-.135-1.286-.388a2.305 2.305 0 0 1-.984-2.364 2.3 2.3 0 0 1 .634-1.179 2.318 2.318 0 0 1 2.522-.5c.423.175.784.47 1.038.849a2.295 2.295 0 0 1-.288 2.908 2.32 2.32 0 0 1-1.636.674Z"/></svg>