<svg xmlns="http://www.w3.org/2000/svg" viewBox="0 0 24 24"><path fill="#000000" d="M2.354 18.1a3.043 3.043 0 0 0 1.508 1.42c.81.437 1.713.437 3.352.437h9.684a7.95 7.95 0 0 0 3.25-.337 3.046 3.046 0 0 0 1.405-1.42c.447-.783.447-1.675.447-3.277v-7.74a4.599 4.599 0 0 0-.345-1.265 2.974 2.974 0 0 0-1.452-1.439c-.8-.437-1.704-.437-3.305-.437h-9.73a7.97 7.97 0 0 0-3.25.337 3.046 3.046 0 0 0-1.471 1.484c-.237.42-.389.88-.447 1.357v7.748c0 1.566 0 2.45.354 3.132ZM3.49 7.001a.644.644 0 0 1 .065-.227.702.702 0 0 0 0-.119v-.09a1.98 1.98 0 0 1 .931-.911 7.258 7.258 0 0 1 2.682-.246h9.73a7.26 7.26 0 0 1 2.616.21c.408.19.737.51.931.91a.77.77 0 0 1 .13.492v.118l-.093.073-7.216 4.889c-.493.392-.8.592-1.07.592h-.466a1.145 1.145 0 0 1-.605-.292c-.121-.082-.27-.19-.447-.29L3.49 7.12V7ZM3.397 8.75l6.592 4.498a3.39 3.39 0 0 0 1.406.72 2.87 2.87 0 0 0 1.21 0c.42-.123.814-.318 1.164-.574l.335-.246 6.518-4.434v6.255a7.128 7.128 0 0 1-.205 2.558c-.2.395-.527.715-.931.91a7.26 7.26 0 0 1-2.588.174h-9.73a7.26 7.26 0 0 1-2.617-.21 1.98 1.98 0 0 1-.93-.91 6.799 6.799 0 0 1-.224-2.522v-6.22Z"/></svg>