<svg xmlns="http://www.w3.org/2000/svg" fill="none" viewBox="0 0 24 24"><path fill="#000000" d="M18.43 1.303a6.52 6.52 0 0 0-2.52-.275H8.145a6.385 6.385 0 0 0-2.571.285c-.55.242-.998.668-1.265 1.204a6.365 6.365 0 0 0-.278 2.59v13.871c-.081.86.017 1.728.288 2.55a2.56 2.56 0 0 0 1.214 1.203 6.52 6.52 0 0 0 2.612.225h7.816a6.387 6.387 0 0 0 2.571-.286c.52-.271.93-.71 1.162-1.244.264-.82.358-1.683.278-2.54V5.107a6.183 6.183 0 0 0-.288-2.54 2.58 2.58 0 0 0-1.255-1.264ZM9.687 2.558h4.628v1.53H9.688v-1.53Zm8.741 16.369a6.93 6.93 0 0 1-.113 1.815 1.024 1.024 0 0 1-.545.551c-.61.135-1.238.18-1.861.133H8.145a7.103 7.103 0 0 1-1.83-.112 1.024 1.024 0 0 1-.556-.541 6.242 6.242 0 0 1-.134-1.846V5.107a6.93 6.93 0 0 1 .114-1.815c.072-.187.192-.353.35-.48a.369.369 0 0 0 .092-.081h.072a4.633 4.633 0 0 1 1.635-.173h.257v.663c-.051.48.009.964.175 1.417.187.355.487.638.854.806.457.165.945.224 1.429.173h2.88c.483.051.972-.008 1.43-.173a1.83 1.83 0 0 0 .812-.806c.166-.453.226-.938.174-1.417v-.663h.258a4.634 4.634 0 0 1 1.655.132c.234.103.421.288.525.52a6.26 6.26 0 0 1 .092 1.897v13.82Z"/></svg>