<svg xmlns="http://www.w3.org/2000/svg" fill="none" viewBox="0 0 24 24"><path fill="#E0007A" d="M6.163 6.701a8.2 8.2 0 0 1 2.678-1.998A7.56 7.56 0 0 1 12.014 4a7.56 7.56 0 0 1 3.173.703A8.2 8.2 0 0 1 17.864 6.7c.084.095.185.17.296.221a.84.84 0 0 0 .856-.086.983.983 0 0 0 .337-.445c.07-.181.09-.382.056-.576a1.034 1.034 0 0 0-.244-.513 10.022 10.022 0 0 0-3.272-2.443A9.24 9.24 0 0 0 12.013 2a9.24 9.24 0 0 0-3.878.86 10.024 10.024 0 0 0-3.273 2.442c-.169.19-.262.445-.26.71.003.265.101.519.274.704a.87.87 0 0 0 .646.285.873.873 0 0 0 .641-.3ZM21.959 17.133a4.431 4.431 0 0 0-1.256-2.348 3.629 3.629 0 0 0-.719-.52c-2.446-1.46-5.186-2.225-7.97-2.225s-5.525.765-7.97 2.226a3.74 3.74 0 0 0-1.298 1.176 4.201 4.201 0 0 0-.677 1.691 6.27 6.27 0 0 0-.064 1.16v.2c-.015.36.003.722.055 1.079a3.1 3.1 0 0 0 .747 1.537c.383.42.87.705 1.4.82.322.057.648.078.974.06h.227c.167.014.334.014.5 0a2.636 2.636 0 0 0 1.662-.863c.446-.49.724-1.134.786-1.824v-.62a9.498 9.498 0 0 1 7.28.08v.54c.061.69.339 1.334.785 1.824.447.49 1.034.796 1.662.864.166.013.334.013.5 0h.218c.329.017.658-.003.983-.06a2.663 2.663 0 0 0 1.4-.821 3.1 3.1 0 0 0 .747-1.537c.052-.357.07-.719.055-1.08v-.22c.025-.38.016-.76-.027-1.139Z"/><path fill="#E0007A" d="M12.014 6.002c-.896-.001-1.783.206-2.601.607a6.436 6.436 0 0 0-2.149 1.72 1.063 1.063 0 0 0-.232.723c.013.266.12.514.3.692.18.177.417.27.658.255a.882.882 0 0 0 .63-.33 4.6 4.6 0 0 1 1.535-1.233A4.207 4.207 0 0 1 12.014 8c.64 0 1.274.149 1.86.436a4.6 4.6 0 0 1 1.534 1.233.919.919 0 0 0 .305.243.841.841 0 0 0 .866-.072.979.979 0 0 0 .339-.431 1.09 1.09 0 0 0 .069-.565 1.044 1.044 0 0 0-.224-.514 6.435 6.435 0 0 0-2.148-1.721 5.888 5.888 0 0 0-2.601-.607Z"/></svg>