<svg xmlns="http://www.w3.org/2000/svg" viewBox="0 0 24 24"><path fill="#000000" d="M19.41 4.603A9.137 9.137 0 0 0 14.053 2h-.11a.602.602 0 0 0-.32.101.828.828 0 0 0-.321.543.546.546 0 0 0 .092.423.914.914 0 0 0 .54.331 7.51 7.51 0 0 1 4.522 2.18 7.688 7.688 0 0 1 2.17 4.6.736.736 0 0 0 .686.617h.092a.842.842 0 0 0 .595-.782 9.162 9.162 0 0 0-2.59-5.41Zm-3.507 3.551c.535.561.9 1.263 1.053 2.024a.681.681 0 0 0 .695.561h.184a.714.714 0 0 0 .503-.837 5.345 5.345 0 0 0-1.4-2.76 5 5 0 0 0-2.747-1.407h-.137a.684.684 0 0 0-.421.138.615.615 0 0 0-.275.423.6.6 0 0 0 .091.478.66.66 0 0 0 .45.276 3.296 3.296 0 0 1 2.004 1.104Zm2.563 7.351a9.075 9.075 0 0 0-1.62-1.5 1.824 1.824 0 0 0-1.328-.166c-.457.12-.659.267-1.5 1.095l-.752.745-.31-.165a13.143 13.143 0 0 1-4.67-4.747l-.082-.166.686-.68c.311-.303.602-.625.87-.966a1.85 1.85 0 0 0 .339-1.058 1.644 1.644 0 0 0-.229-.92 9.182 9.182 0 0 0-1.538-1.674c-1.529-1.546-1.62-1.601-2.142-1.74a1.75 1.75 0 0 0-.916 0c-.558.157-.805.35-1.886 1.482-.842.865-1.052 1.131-1.217 1.693a3.695 3.695 0 0 0-.147.588 6.693 6.693 0 0 0 .064 1.656 15.213 15.213 0 0 0 2.527 5.52 19.905 19.905 0 0 0 5.978 5.602A11.362 11.362 0 0 0 15.995 22c.437.009.872-.066 1.281-.22.44-.166.723-.387 1.666-1.353 1.19-1.223 1.328-1.453 1.328-2.19a1.772 1.772 0 0 0-.32-1.094c-.065-.175-.797-.938-1.484-1.637Zm-.375 3.918c-.916.92-.961.966-1.2 1.095a2.28 2.28 0 0 1-.96.193 6.546 6.546 0 0 1-2.243-.487 18.311 18.311 0 0 1-6.674-4.747 17.693 17.693 0 0 1-2.747-4.02c-1.043-2.134-1.318-3.744-.805-4.6.6-.696 1.245-1.35 1.931-1.96a.593.593 0 0 1 .614 0c.155.093 1.172 1.095 1.419 1.362 1.18 1.187 1.29 1.307 1.336 1.454.101.359 0 .506-1.043 1.545-.86.828-.916.92-.916 1.353.037.26.124.51.256.736a12.155 12.155 0 0 0 2.408 3.164c.875.91 1.889 1.674 3.003 2.263.467.248.55.285.769.285a.99.99 0 0 0 .476-.12c.352-.284.685-.591.998-.92.723-.717.915-.855.998-.92.357-.11.384-.11 1.83 1.39 1.31 1.315 1.401 1.426 1.401 1.693 0 .266-.036.404-.851 1.242Z"/></svg>