<svg xmlns="http://www.w3.org/2000/svg" fill="none" viewBox="0 0 24 24"><path fill="#000000" d="m12.968 17.283 1.04-1.034c2.622-2.625 3.934-3.938 3.992-4.127v-.18c-.058-.17-1.36-1.483-3.963-4.081l-1.069-1.07C9.977 3.788 8.325 2.143 8.112 2.044c-.214-.099-.088 0-.185 0-.15.12-.294.25-.427.387-.457.458-.457.458-.457.674a.724.724 0 0 0 0 .17c.806.846 2.632 2.698 4.012 4.073l4.643 4.657-4.643 4.658c-1.418 1.42-3.74 3.74-4.05 4.117a.407.407 0 0 0 0 .117c0 .17 0 .216.475.692.476.477.408.378.437.387a.248.248 0 0 0 .214 0c.223-.063 1.67-1.51 4.837-4.693Z"/></svg>