<svg xmlns="http://www.w3.org/2000/svg" fill="none" viewBox="0 0 20 20"><path fill="#fff" d="M9.435 12.76a.81.81 0 0 0-.19.906c.044.1.109.19.19.263a.877.877 0 0 0 .584.252.908.908 0 0 0 .59-.252l3.372-3.34c.1-.1.161-.17.161-.246a.326.326 0 0 1 0-.107.595.595 0 0 0 .054-.229.442.442 0 0 0-.085-.329c0-.076-.061-.145-.169-.252L10.58 6.093a.829.829 0 0 0-.591-.252.833.833 0 0 0-.584.252.765.765 0 0 0 0 1.162l1.935 1.919H1.603a.846.846 0 0 0-.764.837.839.839 0 0 0 .764.837h9.767l-1.935 1.911Z"/><path fill="#fff" d="M10.019.833a9.184 9.184 0 0 0-4.62 1.218 9.133 9.133 0 0 0-3.374 3.37.906.906 0 0 0 .246 1.161.94.94 0 0 0 1.167-.344A7.522 7.522 0 0 1 7.08 3.062a7.564 7.564 0 0 1 4.831-.314 7.534 7.534 0 0 1 4.025 2.68 7.478 7.478 0 0 1 0 9.128 7.534 7.534 0 0 1-4.025 2.68 7.564 7.564 0 0 1-4.831-.314 7.523 7.523 0 0 1-3.642-3.177.843.843 0 0 0-.768-.412 1.118 1.118 0 0 0-.43.091.925.925 0 0 0-.314 1.17 9.24 9.24 0 0 0 4.467 3.877 9.29 9.29 0 0 0 5.914.384 9.256 9.256 0 0 0 4.934-3.269 9.187 9.187 0 0 0 1.93-5.579 9.024 9.024 0 0 0-2.642-6.499 9.133 9.133 0 0 0-6.51-2.675Z"/></svg>