<svg xmlns="http://www.w3.org/2000/svg" fill="none" viewBox="0 0 24 24"><path fill="#fff" d="M11.321 15.311a.973.973 0 0 0-.228 1.088c.053.12.13.228.228.316.187.184.437.293.7.302a1.09 1.09 0 0 0 .71-.302l4.045-4.01c.12-.119.194-.201.194-.293a.395.395 0 0 1 0-.128.712.712 0 0 0 .064-.275.53.53 0 0 0-.101-.395c0-.092-.074-.174-.203-.303l-4.036-4a.995.995 0 0 0-.71-.302.999.999 0 0 0-.7.303.919.919 0 0 0-.238 1.08c.056.121.137.228.239.314l2.321 2.303H1.923a1.007 1.007 0 0 0 0 2.01h11.72l-2.322 2.292Z"/><path fill="#fff" d="M12.022 1a11.02 11.02 0 0 0-5.544 1.461A10.96 10.96 0 0 0 2.43 6.504 1.087 1.087 0 0 0 2.725 7.9a1.129 1.129 0 0 0 1.4-.413 9.027 9.027 0 0 1 4.37-3.812 9.076 9.076 0 0 1 5.798-.376 9.041 9.041 0 0 1 4.83 3.215 8.974 8.974 0 0 1 0 10.955 9.041 9.041 0 0 1-4.83 3.215 9.076 9.076 0 0 1-5.798-.377 9.027 9.027 0 0 1-4.37-3.811 1.011 1.011 0 0 0-.921-.496c-.178.002-.353.04-.516.11a1.11 1.11 0 0 0-.378 1.404 11.089 11.089 0 0 0 5.36 4.653 11.149 11.149 0 0 0 7.098.46 11.106 11.106 0 0 0 5.92-3.923 11.023 11.023 0 0 0 2.317-6.694 10.83 10.83 0 0 0-.797-4.218 10.868 10.868 0 0 0-2.374-3.581 10.922 10.922 0 0 0-3.582-2.388A10.96 10.96 0 0 0 12.022 1Z"/></svg>