<svg xmlns="http://www.w3.org/2000/svg" fill="none" viewBox="0 0 24 24"><path fill="#000000" d="M21.143 9.426a5.472 5.472 0 0 0-.574-2.397 3.593 3.593 0 0 0-1.592-1.537 4.092 4.092 0 0 0-2.015-.39h-.201v-.204a4.881 4.881 0 0 0-1.662-2.8A4.738 4.738 0 0 0 12.07 1a4.737 4.737 0 0 0-3.028 1.098 4.88 4.88 0 0 0-1.662 2.8v.205h-.342a4.062 4.062 0 0 0-2.015.379A4.16 4.16 0 0 0 3.41 7.018c-.403.687-.534 1.558-.635 3.269l-.605 6.566c-.191 2.05-.292 3.012.081 3.873a3.966 3.966 0 0 0 1.703 1.793C4.81 23 5.799 23 7.763 23h8.464c2.015 0 2.962 0 3.808-.482a3.917 3.917 0 0 0 1.713-1.833c.373-.85.272-1.854.08-3.852l-.604-6.567c-.08-.277-.08-.563-.08-.84Zm-12.2-4.661a3.233 3.233 0 0 1 1.201-1.643 3.146 3.146 0 0 1 1.932-.58 3.138 3.138 0 0 1 1.866.612c.543.4.948.963 1.156 1.61l.111.339H8.831l.111-.338ZM20.397 20.13c-.21.483-.562.887-1.008 1.158a8.557 8.557 0 0 1-3.022.236H7.763c-1.733 0-2.6 0-3.022-.359a2.505 2.505 0 0 1-1.008-1.116 5.977 5.977 0 0 1-.07-2.428l.05-.677.604-6.454a7.667 7.667 0 0 1 .403-2.684c.22-.42.576-.75 1.008-.932a2.85 2.85 0 0 1 1.23-.236h.251v6.403a.728.728 0 0 0 .205.56.703.703 0 0 0 .55.209.683.683 0 0 0 .556-.204.708.708 0 0 0 .2-.565V6.64h6.55v6.403c0 .204.08.4.22.544a.75.75 0 0 0 1.07 0 .775.775 0 0 0 .22-.544V6.64h.253a2.87 2.87 0 0 1 1.229.236c.406.208.753.519 1.008.902.305.853.488 1.747.544 2.653l.654 7.325a6.06 6.06 0 0 1-.07 2.346v.03Z"/></svg>