<svg xmlns="http://www.w3.org/2000/svg" fill="none" viewBox="0 0 24 24"><path fill="#98007D" d="M14.8 8.798 11 12.586l-1.289-1.29a1 1 0 0 0-1.409 1.41l1.999 2a1 1 0 0 0 1.409 0l4.497-4.498a1 1 0 0 0-1.409-1.41Z"/><path fill="#98007D" d="M21.845 8.868a2.8 2.8 0 0 1-.67-1.61 4.808 4.808 0 0 0-4.427-4.427 2.828 2.828 0 0 1-1.61-.67 4.807 4.807 0 0 0-6.265 0 2.828 2.828 0 0 1-1.61.67A4.807 4.807 0 0 0 2.838 7.26a2.799 2.799 0 0 1-.67 1.61 4.808 4.808 0 0 0 0 6.266 2.85 2.85 0 0 1 .67 1.61 4.818 4.818 0 0 0 4.427 4.437c.593.04 1.158.271 1.609.66a4.816 4.816 0 0 0 6.266 0 2.748 2.748 0 0 1 1.609-.66 4.817 4.817 0 0 0 4.427-4.438 2.85 2.85 0 0 1 .67-1.609 4.808 4.808 0 0 0 0-6.267Zm-1.52 4.998a4.818 4.818 0 0 0-1.139 2.748 2.81 2.81 0 0 1-2.598 2.599 4.817 4.817 0 0 0-2.748 1.14 2.808 2.808 0 0 1-3.668 0 4.817 4.817 0 0 0-2.748-1.14 2.818 2.818 0 0 1-2.599-2.599 4.778 4.778 0 0 0-1.139-2.748 2.83 2.83 0 0 1 0-3.668 4.758 4.758 0 0 0 1.14-2.78A2.829 2.829 0 0 1 7.423 4.82a4.756 4.756 0 0 0 2.748-1.14 2.828 2.828 0 0 1 3.668 0 4.756 4.756 0 0 0 2.748 1.14 2.818 2.818 0 0 1 2.598 2.599 4.818 4.818 0 0 0 1.14 2.749 2.809 2.809 0 0 1 0 3.668v.03Z"/></svg>