<svg xmlns="http://www.w3.org/2000/svg" fill="none" viewBox="0 0 24 24"><path fill="#000000" d="M15.427 2H7.42c-1.758 0-2.637 0-3.418.398A3.624 3.624 0 0 0 2.4 3.992C2 4.77 2 5.644 2 7.394v8.212c0 1.75 0 2.624.4 3.402a3.63 3.63 0 0 0 1.602 1.594C4.783 21 5.662 21 7.42 21h8.251c1.758 0 2.637 0 3.418-.398a3.624 3.624 0 0 0 1.601-1.594c.4-.778.4-1.652.4-3.402v-4.13a.727.727 0 0 0-.732-.73.734.734 0 0 0-.732.73v4.13c.097.92.017 1.85-.235 2.74a2.124 2.124 0 0 1-.976.973 7.094 7.094 0 0 1-2.744.175H7.42a7.367 7.367 0 0 1-2.754-.234 2.124 2.124 0 0 1-.977-.972 6.995 6.995 0 0 1-.224-2.682V7.394a6.99 6.99 0 0 1 .244-2.74c.204-.426.549-.77.976-.973a7.092 7.092 0 0 1 2.735-.223h8.007a.744.744 0 0 0 .732-.73.737.737 0 0 0-.732-.728Z"/><path fill="#000000" d="m20.768 3.186-9.247 9.203-2.412-2.4a.734.734 0 0 0-1.232.52.727.727 0 0 0 .197.51l2.93 2.915a.754.754 0 0 0 1.034 0l9.765-9.718a.727.727 0 0 0-.523-1.226.735.735 0 0 0-.512.196Z"/></svg>