<svg xmlns="http://www.w3.org/2000/svg" fill="none" viewBox="0 0 24 24"><path fill="#000000" d="M11.998 12.994 9.47 10.466a.768.768 0 0 0-1.084 1.085l3.07 3.07a.788.788 0 0 0 1.085 0L22.775 4.388a.767.767 0 0 0-1.085-1.084l-9.692 9.69Z"/><path fill="#000000" d="M20.81 18.591a11.07 11.07 0 0 0 2.19-6.58v-.94a.768.768 0 0 0-1.535 0V12a9.454 9.454 0 0 1-12.736 8.86A9.456 9.456 0 0 1 4.82 5.848a9.457 9.457 0 0 1 11.037-2.493.758.758 0 0 0 1.023-.972.747.747 0 0 0-.4-.43A11.003 11.003 0 0 0 1.355 14.77a11 11 0 0 0 14.597 7.497 11 11 0 0 0 4.859-3.676Z"/></svg>