<svg xmlns="http://www.w3.org/2000/svg" fill="none" viewBox="0 0 24 24"><path fill="#000000" d="M12 12.768a5.45 5.45 0 0 0 5.387-5.384A5.444 5.444 0 0 0 12 2a5.45 5.45 0 0 0-5.387 5.384A5.444 5.444 0 0 0 12 12.768Zm0-9.23a3.9 3.9 0 0 1 3.848 3.846A3.896 3.896 0 0 1 12 11.23a3.9 3.9 0 0 1-3.848-3.846A3.896 3.896 0 0 1 12 3.538ZM20.783 18.224a4.841 4.841 0 0 0-3.212-3.21c-.99-.193-2-.258-3.006-.195h-5.13a12.23 12.23 0 0 0-3.017.195 4.843 4.843 0 0 0-3.201 3.21c-.19.99-.256 2-.195 3.005a.717.717 0 0 0 .77.769.719.719 0 0 0 .769-.77c-.042-.838-.004-1.68.113-2.512A3.189 3.189 0 0 1 6.9 16.47c.84-.12 1.688-.158 2.535-.112h5.13c.84-.038 1.68-.004 2.514.102a3.222 3.222 0 0 1 2.247 2.236c.116.839.154 1.687.113 2.533a.768.768 0 1 0 1.54 0 12.069 12.069 0 0 0-.196-3.005Z"/></svg>