<svg xmlns="http://www.w3.org/2000/svg" viewBox="0 0 24 24"><path fill="#000000" d="M22 12.063a10.018 10.018 0 0 0-4.506-8.417 9.994 9.994 0 0 0-13.39 2.221A10.015 10.015 0 0 0 5.26 19.404h.083l.065.065a9.254 9.254 0 0 0 6.482 2.53 9.717 9.717 0 0 0 6.602-2.54l.175-.027a.297.297 0 0 1 .12-.074A9.917 9.917 0 0 0 22 12.063Zm-4.907 6.859a8.79 8.79 0 0 1-5.14 1.715 8.79 8.79 0 0 1-5.138-1.715l-.186-.139.167-.185a3.14 3.14 0 0 1 2.38-1.205h5.555a3.137 3.137 0 0 1 2.399 1.195l.166.186-.203.148Zm1.425-1.335-.166.204-.176-.194a4.723 4.723 0 0 0-3.445-1.595H9.176a4.717 4.717 0 0 0-3.472 1.595l-.176.194-.167-.204a8.718 8.718 0 0 1-2-5.56c0-2.275.902-4.455 2.509-6.063a8.56 8.56 0 0 1 12.112 0 8.578 8.578 0 0 1 2.509 6.062 8.718 8.718 0 0 1-1.973 5.561Z"/><path fill="#000000" d="M11.954 5.344a4.348 4.348 0 0 0-4.076 2.71 4.36 4.36 0 0 0-.323 1.692 4.405 4.405 0 0 0 4.399 4.403 4.396 4.396 0 0 0 3.11-1.29 4.405 4.405 0 0 0 1.288-3.113 4.359 4.359 0 0 0-2.708-4.08 4.348 4.348 0 0 0-1.69-.322Zm0 7.414a2.942 2.942 0 0 1-2.799-1.849 2.95 2.95 0 0 1-.21-1.163 2.95 2.95 0 0 1 1.847-2.8c.369-.15.764-.221 1.162-.212a2.941 2.941 0 0 1 2.798 1.849c.148.37.22.765.21 1.163a2.95 2.95 0 0 1-3.008 3.012Z"/></svg>